<ttFont>
          <CharString index="0">
            -102 callsubr
            -74 callgsubr
            return
          </CharString>
          <CharString index="1">
            7 -33 callsubr
            512 -104 callgsubr
            return
          </CharString>
          <CharString index="2">
            6 13 -95 callsubr
            return
          </CharString>
          <CharString index="3">
            hlineto
            -103 callgsubr
            return
          </CharString>
          <CharString index="4">
            567 callsubr
            -54 -31 29 54 hvcurveto
            57 8 callgsubr
            29 hlineto
            14 6 7 12 310 callsubr
            -41 hlineto
            return
          </CharString>
          <CharString index="5">
            -107 callgsubr
            314 -103 callsubr
            -102 81 callsubr
            return
          </CharString>
          <CharString index="6">
            -87 callsubr
            -13 6 return
          </CharString>
          <CharString index="7">
            vhcurveto
            66 -99 callsubr
            return
          </CharString>
          <CharString index="8">
            hlineto
            -99 callgsubr
            return
          </CharString>
          <CharString index="9">
            vhcurveto
            -22 hlineto
            -54 -88 callgsubr
            13 6 82 callgsubr
            return
          </CharString>
          <CharString index="10">
            -76 callsubr
            170 -90 callgsubr
            return
          </CharString>
          <CharString index="11">
            rmoveto
            -107 callgsubr
            return
          </CharString>
          <CharString index="12">
            hvcurveto
            -68 callgsubr
            return
          </CharString>
          <CharString index="13">
            278 279 callgsubr
            -19 212 callgsubr
            return
          </CharString>
          <CharString index="14">
            -75 callgsubr
            -171 vlineto
            -57 -28 -22 -50 vhcurveto
            -8 361 callsubr
            -45 -36 callsubr
            22 hlineto
            98 57 53 106 hvcurveto
            174 -77 callsubr
            return
          </CharString>
          <CharString index="15">
            rmoveto
            5 callsubr
            -48 311 callgsubr
            12 7 6 13 hvcurveto
            52 558 callgsubr
            -116 hlineto
            -15 564 callsubr
            -57 vlineto
            27 -33 143 -200 19 callgsubr
            9 hhcurveto
            62 hlineto
            10 7 8 9 248 callsubr
            return
          </CharString>
          <CharString index="16">
            -107 callgsubr
            123 -93 callsubr
            return
          </CharString>
          <CharString index="17">
            6 -105 callsubr
            -6 6 return
          </CharString>
          <CharString index="18">
            4 -84 203 callsubr
            6 -33 callsubr
            235 vlineto
            14 -6 5 -13 vhcurveto
            -51 hlineto
            -12 654 callsubr
            -42 446 callgsubr
            -37 vhcurveto
            -56 hlineto
            -54 -25 22 54 hvcurveto
            73 -37 callsubr
            return
          </CharString>
          <CharString index="19">
            -89 callsubr
            63 -79 callsubr
            return
          </CharString>
          <CharString index="20">
            -44 callsubr
            vlineto
            return
          </CharString>
          <CharString index="21">
            vlineto
            7 4 5 7 -100 callsubr
            return
          </CharString>
          <CharString index="22">
            hlineto
            12 7 6 14 hvcurveto
            511 vlineto
            -63 callsubr
            return
          </CharString>
          <CharString index="23">
            15 4 6 13 hvcurveto
            43 601 callsubr
            return
          </CharString>
          <CharString index="24">
            458 callgsubr
            -25 3 -25 7 -19 hvcurveto
            -16 -52 callgsubr
            11 36 vhcurveto
            return
          </CharString>
          <CharString index="25">
            -6 callgsubr
            59 hlineto
            11 7 7 268 callgsubr
            -2 4 hvcurveto
            return
          </CharString>
          <CharString index="26">
            -48 -25 -38 -60 vhcurveto
            -33 -26 callgsubr
            -59 callgsubr
            6 -13 vhcurveto
            -54 hlineto
            return
          </CharString>
          <CharString index="27">
            -47 callsubr
            13 6 -33 callsubr
            512 vlineto
            7 return
          </CharString>
          <CharString index="28">
            hlineto
            13 -90 callsubr
            -13 vhcurveto
            return
          </CharString>
          <CharString index="29">
            -107 callgsubr
            179 -27 callgsubr
            -76 hlineto
            -14 -9 -9 -13 hvcurveto
            -57 vlineto
            25 -33 11 callgsubr
            return
          </CharString>
          <CharString index="30">
            vlineto
            -46 callgsubr
            return
          </CharString>
          <CharString index="31">
            -13 -54 callsubr
            13 vhcurveto
            return
          </CharString>
          <CharString index="32">
            410 hmoveto
            12 485 callsubr
            51 vlineto
            12 -4 5 -12 vhcurveto
            -228 hlineto
            -8 -4 3 8 hvcurveto
            178 257 callsubr
            193 543 callsubr
            51 vlineto
            704 callsubr
            -193 598 callsubr
            169 257 callsubr
            228 hlineto
            12 469 callsubr
            51 490 callgsubr
            -12 vhcurveto
            -320 124 callgsubr
            return
          </CharString>
          <CharString index="33">
            -52 -21 22 55 hvcurveto
            28 vlineto
            53 18 23 52 vhcurveto
            10 hlineto
            14 7 5 279 callsubr
            -7 7 -14 vhcurveto
            -18 hlineto
            -100 -50 -59 -86 hvcurveto
            -45 vlineto
            return
          </CharString>
          <CharString index="34">
            29 -40 -71 callsubr
            return
          </CharString>
          <CharString index="35">
            -32 callsubr
            512 -77 callsubr
            return
          </CharString>
          <CharString index="36">
            121 -201 -82 callsubr
            return
          </CharString>
          <CharString index="37">
            rmoveto
            529 callsubr
            -55 hlineto
            -12 -6 -6 -12 hvcurveto
            -53 vlineto
            -13 6 10 callgsubr
            5 6 13 hvcurveto
            return
          </CharString>
          <CharString index="38">
            -97 51 -62 106 vhcurveto
            -63 callgsubr
            return
          </CharString>
          <CharString index="39">
            hlineto
            13 6 -33 callsubr
            512 -86 callsubr
            return
          </CharString>
          <CharString index="40">
            3 -65 callsubr
            return
          </CharString>
          <CharString index="41">
            13 -5 -51 callsubr
            return
          </CharString>
          <CharString index="42">
            -5 -7 hvcurveto
            return
          </CharString>
          <CharString index="43">
            20 vlineto
            71 -34 40 -85 -80 -26 -43 -63 vhcurveto
            -16 vlineto
            -16 6 -6 21 vhcurveto
            30 hlineto
            12 189 callgsubr
            15 vlineto
            25 6 15 27 30 5 -15 -25 vhcurveto
            -18 vlineto
            -45 -18 -20 -48 vhcurveto
            -80 hlineto
            -55 -24 23 54 hvcurveto
            108 363 callgsubr
            153 hlineto
            23 16 14 26 hvcurveto
            114 352 callgsubr
            return
          </CharString>
          <CharString index="44">
            -46 callgsubr
            65 -64 callgsubr
            return
          </CharString>
          <CharString index="45">
            417 callsubr
            -50 callgsubr
            return
          </CharString>
          <CharString index="46">
            14 -90 callsubr
            -14 vhcurveto
            return
          </CharString>
          <CharString index="47">
            54 409 643 rmoveto
            -12 -5 274 callsubr
            -23 -25 -50 vhcurveto
            -82 hlineto
            -49 -23 25 49 hvcurveto
            467 -36 callgsubr
            -471 vlineto
            -98 57 -57 98 vhcurveto
            111 hlineto
            97 59 57 98 hvcurveto
            472 vlineto
            12 -6 4 -12 vhcurveto
            return
          </CharString>
          <CharString index="48">
            123 callgsubr
            120 -77 callsubr
            return
          </CharString>
          <CharString index="49">
            hlineto
            -107 callgsubr
            return
          </CharString>
          <CharString index="50">
            4 -65 callsubr
            return
          </CharString>
          <CharString index="51">
            vlineto
            51 1 17 30 51 hhcurveto
            66 hlineto
            37 14 -15 -37 615 callgsubr
            -5 13 vhcurveto
            48 hlineto
            13 7 -33 callsubr
            33 vlineto
            70 -44 39 -77 vhcurveto
            -88 hlineto
            -40 -18 15 42 39 18 15 42 hvcurveto
            145 205 callgsubr
            99 -77 callsubr
            return
          </CharString>
          <CharString index="52">
            14 252 hmoveto
            -51 callgsubr
            return
          </CharString>
          <CharString index="53">
            -6 -18 callgsubr
            6 -6 return
          </CharString>
          <CharString index="54">
            -75 callgsubr
            -362 -15 callsubr
            return
          </CharString>
          <CharString index="55">
            -33 callsubr
            512 -25 callsubr
            return
          </CharString>
          <CharString index="56">
            4 -12 vhcurveto
            -63 hlineto
            -17 callsubr
            return
          </CharString>
          <CharString index="57">
            49 334 453 callsubr
            -116 hlineto
            -98 -57 698 callgsubr
            57 -57 98 vhcurveto
            14 85 rmoveto
            -50 -22 695 callgsubr
            22 25 50 vhcurveto
            87 hlineto
            51 391 callgsubr
            -325 vlineto
            -49 -22 -25 -51 vhcurveto
            return
          </CharString>
          <CharString index="58">
            153 callsubr
            -36 hlineto
            -13 5 -4 12 2 callsubr
            return
          </CharString>
          <CharString index="59">
            -10 -5 -7 -8 -3 1 -3 2 -3 hvcurveto
            88 -143 rlineto
            -7 5 7 -7 10 hhcurveto
            58 86 callgsubr
            return
          </CharString>
          <CharString index="60">
            17 callgsubr
            12 vhcurveto
            53 hlineto
            return
          </CharString>
          <CharString index="61">
            -75 vlineto
            -69 callsubr
            return
          </CharString>
          <CharString index="62">
            19 13 7 31 31 vvcurveto
            93 -49 50 -100 -100 -51 -52 -91 -37 13 -30 23 -16 vhcurveto
            -4 vlineto
            -62 -15 -26 -43 -78 vvcurveto
            -46 vlineto
            -94 48 -56 106 730 callgsubr
            25 12 21 11 hvcurveto
            4 -85 hlineto
            -14 7 -4 12 vhcurveto
            52 653 callgsubr
            14 hvcurveto
            222 vlineto
            14 -7 4 -12 vhcurveto
            -52 466 callgsubr
            -28 729 callgsubr
            -37 vhcurveto
            -30 hlineto
            -54 732 callgsubr
            44 vlineto
            50 19 17 53 vhcurveto
            return
          </CharString>
          <CharString index="63">
            -12 hvcurveto
            -43 return
          </CharString>
          <CharString index="64">
            242 hmoveto
            13 5 5 12 2 hvcurveto
            79 371 rlineto
            7 hlineto
            80 -371 rlineto
            -13 3 5 -4 12 hhcurveto
            86 456 callsubr
            2 hvcurveto
            115 476 rlineto
            11 3 -4 6 -11 hhcurveto
            -72 hlineto
            -11 -7 -4 -13 -2 hvcurveto
            -73 -378 rlineto
            -7 hlineto
            -86 378 rlineto
            13 -3 -7 4 -11 hhcurveto
            -66 371 callsubr
            -2 hvcurveto
            -88 -378 rlineto
            -7 hlineto
            -73 378 rlineto
            14 -2 -7 3 -11 hhcurveto
            -72 hlineto
            -11 -4 -5 -12 3 hvcurveto
            115 -476 rlineto
            -11 3 6 -6 11 hhcurveto
            return
          </CharString>
          <CharString index="65">
            31 99 callsubr
            -107 20 callgsubr
            51 hlineto
            13 return
          </CharString>
          <CharString index="66">
            -93 60 -58 92 vhcurveto
            -29 callsubr
            return
          </CharString>
          <CharString index="67">
            vlineto
            36 20 19 33 721 callsubr
            13 -6 6 -14 vhcurveto
            -62 hlineto
            -35 486 callsubr
            return
          </CharString>
          <CharString index="68">
            -79 callsubr
            endchar
          </CharString>
          <CharString index="69">
            hlineto
            -98 -57 -56 -99 hvcurveto
            -200 vlineto
            -98 57 -57 98 vhcurveto
            return
          </CharString>
          <CharString index="70">
            -28 callgsubr
            4 5 7 vhcurveto
            return
          </CharString>
          <CharString index="71">
            vlineto
            -13 6 -6 13 vhcurveto
            return
          </CharString>
          <CharString index="72">
            -110 56 rlineto
            -28 13 -23 15 28 vvcurveto
            11 vlineto
            21 20 17 42 644 callgsubr
            3 5 12 hvcurveto
            49 490 callgsubr
            -12 vhcurveto
            -166 hlineto
            -99 -44 -43 -86 -65 31 -33 66 -31 hvcurveto
            109 -52 rlineto
            31 -14 16 -21 -26 vvcurveto
            -12 vlineto
            -31 -24 -14 -41 vhcurveto
            -168 hlineto
            -13 -4 -4 -12 hvcurveto
            -49 165 callsubr
            return
          </CharString>
          <CharString index="73">
            -76 -26 39 61 hvcurveto
            32 52 vlineto
            103 55 397 callgsubr
            6 -5 12 vhcurveto
            49 hlineto
            11 6 5 15 hvcurveto
            42 vlineto
            29 18 559 callsubr
            -19 -25 -58 vhcurveto
            -118 hlineto
            -14 713 callgsubr
            return
          </CharString>
          <CharString index="74">
            5 14 hvcurveto
            return
          </CharString>
          <CharString index="75">
            -3 callgsubr
            -33 callsubr
            return
          </CharString>
          <CharString index="76">
            -36 123 -162 rmoveto
            111 46 73 100 28 hvcurveto
            137 481 rlineto
            12 2 -6 6 -12 hhcurveto
            -64 hlineto
            -10 -8 -5 -12 -2 hvcurveto
            -109 -392 rlineto
            -4 hlineto
            -109 392 rlineto
            13 -3 -7 4 -10 hhcurveto
            -67 hlineto
            -12 -4 -5 -12 3 hvcurveto
            133 -449 rlineto
            -11 4 5 -6 12 hhcurveto
            40 hlineto
            -64 -18 -18 -39 -88 hhcurveto
            -23 hlineto
            -13 -4 -7 -11 224 callgsubr
            return
          </CharString>
          <CharString index="77">
            -75 vlineto
            -94 48 -61 98 -4 vhcurveto
            -74 -78 rlineto
            -3 -3 -2 -4 690 callgsubr
            63 hlineto
            11 7 4 6 6 hvcurveto
            10 10 53 59 43 49 6 6 rcurveline
            -88 callsubr
            endchar
          </CharString>
          <CharString index="78">
            157 callsubr
            15 hvcurveto
            4 -187 hlineto
            70 callgsubr
            return
          </CharString>
          <CharString index="79">
            157 callgsubr
            104 hlineto
            -46 callgsubr
            return
          </CharString>
          <CharString index="80">
            7 -22 callsubr
            return
          </CharString>
          <CharString index="81">
            rmoveto
            -8 -3 -4 -8 vhcurveto
            -159 hlineto
            -7 -4 4 8 hvcurveto
            186 270 callsubr
            return
          </CharString>
          <CharString index="82">
            vlineto
            7 3 5 8 -100 callsubr
            return
          </CharString>
          <CharString index="83">
            rmoveto
            449 callsubr
            vhcurveto
            -176 4 hlineto
            18 -59 callsubr
            141 -84 callgsubr
            return
          </CharString>
          <CharString index="84">
            18 callgsubr
            -13 return
          </CharString>
          <CharString index="85">
            522 callsubr
            4 8 vhcurveto
            return
          </CharString>
          <CharString index="86">
            143 hmoveto
            196 callgsubr
            47 hlineto
            50 23 -25 -49 hvcurveto
            -334 196 callsubr
            338 vlineto
            99 -53 56 -98 vhcurveto
            -44 hlineto
            -48 -37 -18 -35 -16 hvcurveto
            -4 return
          </CharString>
          <CharString index="87">
            32 346 callgsubr
            -101 20 callgsubr
            53 548 callgsubr
            511 vlineto
            7 4 5 7 113 callsubr
          </CharString>
          <CharString index="88">
            8 callsubr
            206 -77 callsubr
            return
          </CharString>
          <CharString index="89">
            41 346 callgsubr
            -99 20 callgsubr
            54 -85 callsubr
            endchar
          </CharString>
          <CharString index="90">
            26 callgsubr
            hvcurveto
            return
          </CharString>
          <CharString index="91">
            4 8 6 callsubr
            return
          </CharString>
          <CharString index="92">
            vlineto
            -34 callgsubr
            return
          </CharString>
          <CharString index="93">
            hlineto
            -8 callgsubr
            return
          </CharString>
          <CharString index="94">
            vlineto
            13 -6 6 return
          </CharString>
          <CharString index="95">
            -25 -14 callsubr
            return
          </CharString>
          <CharString index="96">
            -13 callsubr
            -13 vhcurveto
            return
          </CharString>
          <CharString index="97">
            -3 callsubr
            -25 vlineto
            -81 43 -33 89 vhcurveto
            84 hlineto
            34 17 -11 -38 hvcurveto
            -29 vlineto
            -37 -18 -13 -33 vhcurveto
            -65 hlineto
            -47 -23 353 callsubr
            60 -32 87 vhcurveto
            87 hlineto
            79 50 44 78 hvcurveto
            46 vlineto
            76 -49 37 -80 vhcurveto
            -90 hlineto
            -34 -16 9 38 hvcurveto
            9 50 callsubr
          </CharString>
          <CharString index="98">
            108 callsubr
            109 575 callsubr
            -109 101 callgsubr
            return
          </CharString>
          <CharString index="99">
            14 6 6 12 hvcurveto
            41 84 callsubr
            -62 hlineto
            return
          </CharString>
          <CharString index="100">
            -15 callgsubr
            -60 99 vhcurveto
            51 hlineto
            return
          </CharString>
          <CharString index="101">
            152 callgsubr
            -270 93 callgsubr
            return
          </CharString>
          <CharString index="102">
            7 3 5 return
          </CharString>
          <CharString index="103">
            -36 callsubr
            49 hlineto
            return
          </CharString>
          <CharString index="104">
            4 callsubr
            291 577 callgsubr
            -80 -52 -38 -79 hvcurveto
            return
          </CharString>
          <CharString index="105">
            85 106 callsubr
            -67 hlineto
            -48 -21 673 callsubr
            -7 8 -11 vhcurveto
            return
          </CharString>
          <CharString index="106">
            hlineto
            -10 callgsubr
            return
          </CharString>
          <CharString index="107">
            hlineto
            111 54 34 callsubr
            return
          </CharString>
          <CharString index="108">
            -79 callgsubr
            -229 vlineto
            -94 326 callsubr
            48 hlineto
            return
          </CharString>
          <CharString index="109">
            vhcurveto
            63 5 callgsubr
            return
          </CharString>
          <CharString index="110">
            vlineto
            166 callgsubr
            return
          </CharString>
          <CharString index="111">
            rmoveto
            -11 callgsubr
            return
          </CharString>
          <CharString index="112">
            41 0 callsubr
            return
          </CharString>
          <CharString index="113">
            hvcurveto
            186 -77 callsubr
            return
          </CharString>
          <CharString index="114">
            -6 -12 hvcurveto
            -42 vlineto
            return
          </CharString>
          <CharString index="115">
            -53 -23 26 52 hvcurveto
            return
          </CharString>
          <CharString index="116">
            325 rmoveto
            -45 -25 -33 -58 vhcurveto
            -20 618 callgsubr
            157 -84 callgsubr
            return
          </CharString>
          <CharString index="117">
            14 callgsubr
            -111 hlineto
            -101 -53 -55 -102 hvcurveto
            return
          </CharString>
          <CharString index="118">
            13 7 -105 callsubr
            -7 return
          </CharString>
          <CharString index="119">
            482 callsubr
            27 -22 callgsubr
            return
          </CharString>
          <CharString index="120">
            -175 167 rlineto
            7 12 623 callsubr
            319 callgsubr
            return
          </CharString>
          <CharString index="121">
            -62 callsubr
            61 55 callgsubr
            return
          </CharString>
          <CharString index="122">
            -71 32 17 rmoveto
            -11 4 -6 14 vhcurveto
            333 543 callsubr
            50 vlineto
            11 -5 7 -13 vhcurveto
            -223 4 hlineto
            219 320 rlineto
            7 8 5 7 23 vvcurveto
            46 320 callsubr
            -316 hlineto
            -13 -5 -6 -11 hvcurveto
            -50 vlineto
            -11 5 -7 13 vhcurveto
            219 -4 hlineto
            -231 -335 rlineto
            -8 -10 -6 -9 -24 vvcurveto
            return
          </CharString>
          <CharString index="123">
            rlineto
            -5 4 420 callsubr
            57 hlineto
            11 6 8 10 248 callsubr
            return
          </CharString>
          <CharString index="124">
            125 callgsubr
            -57 301 callgsubr
            -7 vhcurveto
            return
          </CharString>
          <CharString index="125">
            80 -10 -52 43 -91 hhcurveto
            -67 hlineto
            -14 713 callgsubr
            -45 vlineto
            -11 6 -6 14 vhcurveto
            64 hlineto
            48 30 -22 -59 hvcurveto
            -64 vlineto
            -58 -31 -22 -49 vhcurveto
            -79 hlineto
            -14 -5 -7 -11 hvcurveto
            -44 vlineto
            -14 170 callgsubr
            84 hlineto
            89 53 42 79 11 hvcurveto
            return
          </CharString>
          <CharString index="126">
            rmoveto
            -19 15 rlineto
            11 6 5 13 17 vvcurveto
            20 vlineto
            35 -27 rlineto
            -12 -228 rmoveto
            -54 -27 -29 -54 vhcurveto
            -84 hlineto
            -55 -26 29 54 hvcurveto
            36 vlineto
            54 20 27 55 vhcurveto
            96 hlineto
            54 21 -27 -54 hvcurveto
            -235 380 rmoveto
            22 -17 rlineto
            0 vlineto
            449 callsubr
            hvcurveto
            -47 vlineto
            -45 35 rlineto
            -119 104 306 callgsubr
            64 hlineto
            7 -1 2 591 callsubr
            16 -29 28 -16 vhcurveto
            -4 vlineto
            -47 -25 -18 -43 -62 vvcurveto
            -42 vlineto
            return
          </CharString>
          <CharString index="127">
            173 callsubr
            429 4 vlineto
            240 -430 rlineto
            -2 2 7 -14 17 hhcurveto
            54 hlineto
            308 callgsubr
            -62 398 callgsubr
            -242 435 rlineto
            2 -1 -5 9 -16 hhcurveto
            -56 124 callgsubr
            return
          </CharString>
          <CharString index="128">
            175 626 rmoveto
            44 callgsubr
            63 hlineto
            187 callsubr
            return
          </CharString>
          <CharString index="129">
            12 hvcurveto
            43 vlineto
            13 return
          </CharString>
          <CharString index="130">
            367 callsubr
            -279 382 callsubr
            -49 -20 19 52 hvcurveto
            30 vlineto
            37 20 19 33 710 callgsubr
            6 5 13 hvcurveto
            44 299 callsubr
            -64 hlineto
            -35 -18 18 35 hvcurveto
            40 vlineto
            38 17 17 31 vhcurveto
            return
          </CharString>
          <CharString index="131">
            vlineto
            25 -33 43 callgsubr
            return
          </CharString>
          <CharString index="132">
            12 35 callsubr
            return
          </CharString>
          <CharString index="133">
            78 425 rmoveto
            7 3 -3 -7 hvcurveto
            -262 vlineto
            -98 61 -55 97 vhcurveto
            54 468 callsubr
            52 vlineto
            12 -4 5 -14 vhcurveto
            -39 hlineto
            -50 -25 24 49 hvcurveto
            257 257 callgsubr
            93 468 callsubr
            52 490 callgsubr
            -14 vhcurveto
            -93 547 callsubr
            90 vlineto
            355 callsubr
            -63 hlineto
            -11 -7 -4 -13 hvcurveto
            -90 vlineto
            -7 -3 -3 -7 vhcurveto
            -48 198 callgsubr
            -52 vlineto
            -12 3 -4 14 vhcurveto
            return
          </CharString>
          <CharString index="134">
            vlineto
            54 26 28 50 vhcurveto
            56 50 callgsubr
            682 callgsubr
            return
          </CharString>
          <CharString index="135">
            -50 -19 88 callsubr
            return
          </CharString>
          <CharString index="136">
            30 callsubr
            93 hlineto
            return
          </CharString>
          <CharString index="137">
            61 callgsubr
            -211 hlineto
            76 callgsubr
            -33 vlineto
            -93 53 -52 93 vhcurveto
            return
          </CharString>
          <CharString index="138">
            hlineto
            53 callsubr
            return
          </CharString>
          <CharString index="139">
            -2 callgsubr
            164 hlineto
            return
          </CharString>
          <CharString index="140">
            -8 -3 4 8 63 -40 22 -60 28 hvcurveto
            -57 28 rlineto
            -34 16 -22 14 40 vvcurveto
            20 vlineto
            14 -5 5 -14 vhcurveto
            -50 hlineto
            -14 -6 -5 -14 hvcurveto
            -27 vlineto
            -58 27 -37 61 -30 vhcurveto
            53 -27 rlineto
            62 -31 8 -4 -19 vvcurveto
            return
          </CharString>
          <CharString index="141">
            57 98 hvcurveto
            85 114 callgsubr
            return
          </CharString>
          <CharString index="142">
            hvcurveto
            43 -11 callsubr
            return
          </CharString>
          <CharString index="143">
            -13 hvcurveto
            -43 vlineto
            -13 6 -6 return
          </CharString>
          <CharString index="144">
            87 callsubr
            -218 vlineto
            403 callsubr
            return
          </CharString>
          <CharString index="145">
            7 -1 3 return
          </CharString>
          <CharString index="146">
            -7 -4 -16 callsubr
            return
          </CharString>
          <CharString index="147">
            267 343 164 rmoveto
            -57 -26 -27 -56 vhcurveto
            -41 hlineto
            -55 -23 24 52 hvcurveto
            14 vlineto
            50 22 24 56 vhcurveto
            112 442 callsubr
            292 44 rmoveto
            -8 -4 -3 -7 vhcurveto
            -173 hlineto
            505 callsubr
            75 vlineto
            50 26 22 50 vhcurveto
            46 hlineto
            50 23 -25 -49 hvcurveto
            -195 -162 rmoveto
            6 4 4 8 vhcurveto
            251 hlineto
            12 6 5 13 hvcurveto
            138 676 callgsubr
            -53 hlineto
            -46 -50 -12 -47 -25 hvcurveto
            46 -24 -54 13 -46 hhcurveto
            -157 307 callgsubr
            160 hlineto
            47 25 -22 -51 hvcurveto
            -29 vlineto
            -5 -2 -3 -6 vhcurveto
            -130 hlineto
            -97 -58 -50 -99 hvcurveto
            -16 vlineto
            -96 60 -54 95 vhcurveto
            34 hlineto
            58 53 15 46 25 hvcurveto
            -43 26 38 -18 59 hhcurveto
            205 468 callsubr
            52 vlineto
            704 callsubr
            -190 hlineto
            -50 -23 25 49 hvcurveto
            return
          </CharString>
          <CharString index="148">
            220 callgsubr
            12 return
          </CharString>
          <CharString index="149">
            -14 7 -5 12 vhcurveto
            53 hlineto
            13 6 -33 callsubr
            295 202 callgsubr
            102 57 60 99 113 callgsubr
            314 -72 callgsubr
            return
          </CharString>
          <CharString index="150">
            35 callgsubr
            -11 hlineto
            -54 1 -24 19 59 vvcurveto
            return
          </CharString>
          <CharString index="151">
            247 callgsubr
            224 -77 callsubr
            return
          </CharString>
          <CharString index="152">
            rmoveto
            7 4 536 callgsubr
            -682 194 callsubr
            258 567 callsubr
            -55 -30 29 54 hvcurveto
            57 8 callgsubr
            29 hlineto
            14 6 7 12 310 callsubr
            -42 hlineto
            -101 715 callsubr
            99 vhcurveto
            25 hlineto
            45 -42 callsubr
            6 6 14 hvcurveto
            294 vlineto
            47 540 callsubr
            -28 -54 hvcurveto
            -57 424 callsubr
            66 124 callsubr
            -14 hvcurveto
            -4 hlineto
            return
          </CharString>
          <CharString index="153">
            201 rmoveto
            -53 -21 -29 -51 vhcurveto
            -7 306 callsubr
            7 hlineto
            51 21 -29 -53 hvcurveto
            -239 694 callsubr
            -6 hlineto
            -52 -20 29 53 hvcurveto
            80 vlineto
            53 20 29 52 vhcurveto
            6 hlineto
            52 21 -29 -53 hvcurveto
            -293 342 552 callgsubr
            4 -5 -7 hvcurveto
            -80 vlineto
            -7 -3 -3 -7 -2 vhcurveto
            -32 -7 -24 -14 -18 -21 rrcurveto
            30 -24 -39 16 -54 hhcurveto
            -8 hlineto
            -102 -56 -57 -105 hvcurveto
            -80 vlineto
            -105 56 -57 102 vhcurveto
            8 hlineto
            53 39 15 30 24 hvcurveto
            -30 24 38 -15 53 hhcurveto
            11 hlineto
            102 56 57 105 hvcurveto
            80 vlineto
            86 -35 50 -71 19 vhcurveto
            -8 3 -3 3 7 vvcurveto
            82 507 callsubr
            7 vhcurveto
            164 -39 callsubr
          </CharString>
          <CharString index="154">
            vvcurveto
            48 callgsubr
          </CharString>
          <CharString index="155">
            hlineto
            12 7 6 14 hvcurveto
            294 202 callgsubr
            101 58 60 99 113 callgsubr
            314 -39 callsubr
          </CharString>
          <CharString index="156">
            896 rmoveto
            13 -6 5 -12 vhcurveto
            -41 hlineto
            -12 -5 -5 -13 677 callsubr
            12 vhcurveto
            41 606 callsubr
            18 -159 500 callsubr
            -7 9 -15 vhcurveto
            -37 hlineto
            -12 336 callsubr
            -14 -15 -38 vhcurveto
            -83 hlineto
            -39 691 callsubr
            -7 295 callsubr
            return
          </CharString>
          <CharString index="157">
            270 callgsubr
            7 vhcurveto
            72 hlineto
            13 7 5 298 callgsubr
            endchar
          </CharString>
          <CharString index="158">
            -26 hlineto
            -100 -60 -55 -100 hvcurveto
            -36 311 callgsubr
            291 callgsubr
            31 vlineto
            54 27 23 54 vhcurveto
            33 hlineto
            return
          </CharString>
          <CharString index="159">
            -12 -5 -5 -13 hvcurveto
            -53 vlineto
            -13 5 -6 12 vhcurveto
            55 606 callsubr
            53 vlineto
            13 -6 5 -12 vhcurveto
            return
          </CharString>
          <CharString index="160">
            49 20 -22 -46 hvcurveto
            -14 vlineto
            28 callsubr
            return
          </CharString>
          <CharString index="161">
            hlineto
            142 callgsubr
            return
          </CharString>
          <CharString index="162">
            130 callsubr
            116 callgsubr
            return
          </CharString>
          <CharString index="163">
            rmoveto
            -47 -20 19 52 hvcurveto
            74 vlineto
            188 -144 rlineto
            -1 -2 -1 0 -2 hhcurveto
            4 205 rmoveto
            137 callgsubr
            -131 vlineto
            -188 143 rlineto
            2 hlineto
            -167 80 381 callgsubr
            59 hlineto
            7 -1 3 591 callsubr
            17 -29 28 -16 vhcurveto
            -4 vlineto
            -38 -23 -22 -45 -62 vvcurveto
            -44 vlineto
            return
          </CharString>
          <CharString index="164">
            625 callsubr
            319 callgsubr
            -101 13 callgsubr
            -76 vlineto
            -100 61 -60 99 vhcurveto
            return
          </CharString>
          <CharString index="165">
            241 callgsubr
            4 return
          </CharString>
          <CharString index="166">
            -1 callgsubr
            138 31 callsubr
            return
          </CharString>
          <CharString index="167">
            hlineto
            -76 -26 39 61 hvcurveto
            19 64 vlineto
            103 55 47 95 hvcurveto
            88 102 callgsubr
            -44 vlineto
            -15 6 -5 12 vhcurveto
            49 hlineto
            11 6 5 15 hvcurveto
            35 vlineto
            29 18 17 33 31 20 -16 -31 vhcurveto
            -82 vlineto
            -40 -19 -24 -58 vhcurveto
            -79 hlineto
            50 -16 -45 36 -70 hhcurveto
            -65 -32 -26 -34 -13 -95 callgsubr
            23 18 42 43 19 -24 -52 vhcurveto
            -27 vlineto
            387 callsubr
            return
          </CharString>
          <CharString index="168">
            vlineto
            39 callgsubr
            return
          </CharString>
          <CharString index="169">
            -3 callsubr
            -23 503 callsubr
            3 callgsubr
            return
          </CharString>
          <CharString index="170">
            hhcurveto
            -77 hlineto
            61 callgsubr
            -492 hlineto
            -91 callsubr
            132 233 callgsubr
            96 hlineto
            return
          </CharString>
          <CharString index="171">
            8 callgsubr
            29 hlineto
            14 6 7 12 310 callsubr
            -41 hlineto
            -102 13 callgsubr
            return
          </CharString>
          <CharString index="172">
            hlineto
            -13 -6 -6 -13 hvcurveto
            -42 -36 callsubr
            return
          </CharString>
          <CharString index="173">
            410 callgsubr
            -81 vhcurveto
            -45 hlineto
            -77 616 callsubr
            45 12 vlineto
            90 47 40 87 hvcurveto
            21 207 callgsubr
            return
          </CharString>
          <CharString index="174">
            -58 callsubr
            56 -19 callgsubr
            -110 hmoveto
            -73 callgsubr
            -224 vlineto
            -50 -26 -19 -40 vhcurveto
            -10 44 callsubr
            endchar
          </CharString>
          <CharString index="175">
            75 callsubr
            21 -18 -56 vhcurveto
            return
          </CharString>
          <CharString index="176">
            -13 -7 -23 callsubr
            457 callgsubr
            return
          </CharString>
          <CharString index="177">
            vhcurveto
            159 hlineto
            23 17 14 27 hvcurveto
            return
          </CharString>
          <CharString index="178">
            7 -6 -3 2 -6 hhcurveto
            -6 -5 -5 -7 -7 hvcurveto
            -41 -40 -26 -10 -42 hhcurveto
            -37 159 callsubr
            110 vlineto
            -103 callgsubr
            -369 364 callsubr
            -112 vlineto
            -96 68 -73 95 vhcurveto
            38 -4 hlineto
            121 callsubr
            108 91 15 14 65 54 32 31 rlinecurve
            return
          </CharString>
          <CharString index="179">
            hlineto
            -66 callsubr
            return
          </CharString>
          <CharString index="180">
            30 callgsubr
            19 vlineto
            103 -54 59 return
          </CharString>
          <CharString index="181">
            hlineto
            -55 -27 27 53 hvcurveto
            33 27 callsubr
            return
          </CharString>
          <CharString index="182">
            -100 callgsubr
            22 18 44 44 return
          </CharString>
          <CharString index="183">
            73 callsubr
            -112 vhcurveto
            endchar
          </CharString>
          <CharString index="184">
            rlineto
            -3 -3 144 callgsubr
            return
          </CharString>
          <CharString index="185">
            43 19 -17 -18 12 hvcurveto
            -7 5 4 -6 7 405 callgsubr
            -45 157 callgsubr
            104 hlineto
            7 3 5 8 vhcurveto
            221 -79 callsubr
            return
          </CharString>
          <CharString index="186">
            rmoveto
            40 20 -14 -18 12 hvcurveto
            -8 7 3 -8 8 405 callgsubr
            -44 661 callgsubr
            7 vhcurveto
            226 -79 callsubr
            -664 109 callsubr
            -216 vlineto
            -41 callsubr
            287 339 callgsubr
            return
          </CharString>
          <CharString index="187">
            rmoveto
            -85 callgsubr
            -752 109 callsubr
            -216 vlineto
            -41 callsubr
            return
          </CharString>
          <CharString index="188">
            13 callgsubr
            -66 vlineto
            return
          </CharString>
          <CharString index="189">
            rmoveto
            701 callgsubr
            -94 hlineto
            -33 -20 11 21 -11 hvcurveto
            230 321 rlineto
            -238 46 rmoveto
            49 22 25 50 vhcurveto
            94 hlineto
            33 21 -11 -21 10 hvcurveto
            -230 -321 rlineto
            334 435 rmoveto
            -10 7 -8 -1 -8 -11 -19 -27 rcurveline
            23 -27 -36 12 -46 hhcurveto
            -122 hlineto
            -98 -57 601 callgsubr
            -26 4 -23 8 -20 vhcurveto
            -32 -45 -7 -11 2 -8 9 -7 rlinecurve
            17 -13 10 -6 8 1 8 10 rlinecurve
            20 28 rlineto
            -23 26 37 -12 45 hhcurveto
            122 hlineto
            98 57 57 98 hvcurveto
            333 vlineto
            26 -4 23 -8 20 vhcurveto
            33 46 6 10 -1 8 -10 7 rlinecurve
            endchar
          </CharString>
          <CharString index="190">
            hlineto
            -60 callgsubr
            return
          </CharString>
          <CharString index="191">
            -13 callsubr
            -14 vhcurveto
            return
          </CharString>
          <CharString index="192">
            -5 -2 -4 -6 vvcurveto
            -9 7 -4 10 273 callgsubr
            77 return
          </CharString>
          <CharString index="193">
            -4 hlineto
            -21 -10 -11 -20 -32 vvcurveto
            -79 vlineto
            -41 20 -30 38 -9 vhcurveto
            -4 vlineto
            -41 -14 -17 -35 -48 vvcurveto
            return
          </CharString>
          <CharString index="194">
            rmoveto
            -79 callgsubr
            return
          </CharString>
          <CharString index="195">
            -16 -50 vhcurveto
            -63 110 callgsubr
            return
          </CharString>
          <CharString index="196">
            -6 145 callgsubr
            6 return
          </CharString>
          <CharString index="197">
            226 callgsubr
            -76 hlineto
            -14 241 callgsubr
            3 6 -7 10 hhcurveto
            59 86 callgsubr
            -144 223 rlineto
            return
          </CharString>
          <CharString index="198">
            92 93 callsubr
            return
          </CharString>
          <CharString index="199">
            rmoveto
            -12 -6 -6 -12 hvcurveto
            -53 vlineto
            -13 6 -6 12 vhcurveto
            55 606 callsubr
            53 vlineto
            12 return
          </CharString>
          <CharString index="200">
            rmoveto
            -1 callgsubr
            return
          </CharString>
          <CharString index="201">
            hlineto
            97 callgsubr
          </CharString>
          <CharString index="202">
            204 callgsubr
            -12 65 callsubr
            return
          </CharString>
          <CharString index="203">
            -96 callsubr
            468 -47 callgsubr
            -17 hlineto
            62 -10 -42 40 -71 hhcurveto
            -72 411 callsubr
            -116 vlineto
            -108 51 -52 98 488 callgsubr
            114 340 callgsubr
            58 hlineto
            40 18 -23 -37 hvcurveto
            -38 vlineto
            29 -40 121 -201 -6 callgsubr
            60 hlineto
            10 7 7 268 callgsubr
            -2 4 hvcurveto
            -135 218 rlineto
            return
          </CharString>
          <CharString index="204">
            433 rmoveto
            495 callsubr
            -75 vlineto
            -54 -24 -24 692 callgsubr
            18 50 hvcurveto
            10 vlineto
            41 18 21 43 vhcurveto
            28 hlineto
            14 6 7 11 hvcurveto
            43 530 callsubr
            -14 vhcurveto
            -35 409 callsubr
            52 vlineto
            41 18 23 42 vhcurveto
            167 hlineto
            8 -1 4 -3 -8 vvcurveto
            -71 vlineto
            -10 -1 -9 -3 -8 vhcurveto
            -124 -489 rmoveto
            -58 -21 21 45 37 16 27 41 hvcurveto
            99 hlineto
            20 19 3 6 18 hvcurveto
            -63 vlineto
            -44 -20 -32 -62 vhcurveto
            return
          </CharString>
          <CharString index="205">
            -14 6 -5 13 vhcurveto
            52 hlineto
            13 6 -33 callsubr
            return
          </CharString>
          <CharString index="206">
            16 26 15 hvcurveto
            4 return
          </CharString>
          <CharString index="207">
            213 callsubr
            53 hlineto
            118 callgsubr
            return
          </CharString>
          <CharString index="208">
            hlineto
            -10 214 callsubr
            2 -6 9 706 callgsubr
            return
          </CharString>
          <CharString index="209">
            21 -20 -60 hvcurveto
            -18 vlineto
            -14 return
          </CharString>
          <CharString index="210">
            208 callsubr
            10 6 89 callgsubr
            10 6 235 callgsubr
            endchar
          </CharString>
          <CharString index="211">
            rmoveto
            -76 callsubr
            98 86 callsubr
            -36 vlineto
            return
          </CharString>
          <CharString index="212">
            411 rmoveto
            -4 hlineto
            20 -11 -24 11 -37 463 callgsubr
            179 callgsubr
            return
          </CharString>
          <CharString index="213">
            322 callsubr
            -30 vlineto
            -37 -16 -13 -34 vhcurveto
            return
          </CharString>
          <CharString index="214">
            vlineto
            88 callgsubr
            return
          </CharString>
          <CharString index="215">
            rlineto
            -4 85 callsubr
            return
          </CharString>
          <CharString index="216">
            hlineto
            -79 callgsubr
            return
          </CharString>
          <CharString index="217">
            20 callgsubr
            54 121 callgsubr
            -590 -58 callsubr
            411 234 callsubr
            -27 27 53 hvcurveto
            33 vlineto
            54 26 28 50 vhcurveto
            56 58 callgsubr
            return
          </CharString>
          <CharString index="218">
            hlineto
            -13 -6 154 callgsubr
            170 callgsubr
            39 629 callgsubr
            -78 195 callsubr
            105 605 callsubr
            70 vlineto
            33 -12 23 -24 11 vhcurveto
            return
          </CharString>
          <CharString index="219">
            110 vlineto
            63 -35 40 -49 9 vhcurveto
            4 vlineto
            27 10 10 23 30 vvcurveto
            54 -77 callsubr
            return
          </CharString>
          <CharString index="220">
            vhcurveto
            66 -39 callsubr
          </CharString>
          <CharString index="221">
            vlineto
            166 callsubr
            return
          </CharString>
          <CharString index="222">
            500 callsubr
            -8 9 -15 vhcurveto
            -36 hlineto
            -13 438 callgsubr
            -39 vhcurveto
            -83 hlineto
            -38 -14 399 callgsubr
            -38 hlineto
            -16 437 callsubr
            79 vhcurveto
            return
          </CharString>
          <CharString index="223">
            17 callsubr
            -111 hlineto
            return
          </CharString>
          <CharString index="224">
            244 callsubr
            -8 -4 600 callgsubr
            return
          </CharString>
          <CharString index="225">
            634 136 254 rmoveto
            6 callgsubr
            207 -99 callsubr
            -496 hlineto
            -78 callsubr
            return
          </CharString>
          <CharString index="226">
            -47 callgsubr
            -22 hlineto
            45 -13 -34 27 -58 hhcurveto
            -117 hlineto
            -70 -44 -45 -65 -25 3 -24 7 -20 hvcurveto
            -15 7 10 75 callgsubr
            76 hlineto
            31 13 -12 -26 hvcurveto
            -30 -58 callgsubr
            -135 218 rlineto
            return
          </CharString>
          <CharString index="227">
            648 callgsubr
            -29 21 vhcurveto
            15 400 callsubr
            9 vhcurveto
            61 hlineto
            185 callsubr
            endchar
          </CharString>
          <CharString index="228">
            0 -42 -18 -50 -40 vhcurveto
            -55 -44 rlineto
            -7 -5 -2 -5 -5 322 callgsubr
            80 hlineto
            11 9 5 6 8 hvcurveto
            return
          </CharString>
          <CharString index="229">
            215 callsubr
            4 hvcurveto
            return
          </CharString>
          <CharString index="230">
            rmoveto
            7 -5 -7 3 -9 hhcurveto
            -49 151 callgsubr
            5 -2 7 393 callgsubr
          </CharString>
          <CharString index="231">
            vlineto
            101 -59 58 242 callgsubr
            return
          </CharString>
          <CharString index="232">
            vvcurveto
            -36 311 callgsubr
            291 callgsubr
            31 vlineto
            54 27 23 54 vhcurveto
            33 hlineto
            56 28 -26 -53 hvcurveto
            -28 146 callsubr
            512 vlineto
            7 4 5 8 vhcurveto
            65 235 callsubr
          </CharString>
          <CharString index="233">
            -14 -5 -7 -12 hvcurveto
            return
          </CharString>
          <CharString index="234">
            rmoveto
            90 callsubr
            19 hlineto
            72 47 49 82 hvcurveto
            146 -77 callsubr
            57 -72 callgsubr
            -348 -58 callsubr
            179 -75 callgsubr
            endchar
          </CharString>
          <CharString index="235">
            hlineto
            118 callgsubr
            -256 vlineto
            -47 -16 -33 -57 vhcurveto
            -6 hlineto
            -74 callsubr
            return
          </CharString>
          <CharString index="236">
            rmoveto
            59 callsubr
            return
          </CharString>
          <CharString index="237">
            -7 -4 4 8 hvcurveto
            127 95 callsubr
            return
          </CharString>
          <CharString index="238">
            702 callsubr
            -55 546 callsubr
            80 vlineto
            54 25 26 55 vhcurveto
            return
          </CharString>
          <CharString index="239">
            125 callgsubr
            -64 301 callgsubr
            -7 vhcurveto
            -101 hlineto
            return
          </CharString>
          <CharString index="240">
            -28 -54 hvcurveto
            -57 vlineto
            -54 return
          </CharString>
          <CharString index="241">
            -20 -57 386 callgsubr
            return
          </CharString>
          <CharString index="242">
            203 callgsubr
            -12 -16 -33 vhcurveto
            -7 hlineto
            -31 595 callgsubr
            -5 3 -8 vhcurveto
            -38 hlineto
            -7 -5 -3 -9 hvcurveto
            return
          </CharString>
          <CharString index="243">
            rmoveto
            -11 -9 -4 -12 -5 222 callgsubr
            84 602 callsubr
            -11 hhcurveto
            endchar
          </CharString>
          <CharString index="244">
            hvcurveto
            7 vlineto
            16 -7 7 -11 vhcurveto
            -48 hlineto
            -13 -7 -7 -16 hvcurveto
            -8 vlineto
            -73 32 -33 52 -13 vhcurveto
            -48 131 callgsubr
            46 100 -281 vlineto
            -14 7 -5 12 vhcurveto
            53 hlineto
            12 7 -33 callsubr
            295 vlineto
            38 19 22 37 52 vvcurveto
            38 vlineto
            76 -48 37 -80 vhcurveto
            -154 718 callgsubr
            return
          </CharString>
          <CharString index="245">
            8 3 -4 -8 hvcurveto
            return
          </CharString>
          <CharString index="246">
            vlineto
            76 501 callgsubr
            8 35 35 16 8 34 hvcurveto
            158 204 callsubr
            92 -77 callsubr
            83 236 callgsubr
          </CharString>
          <CharString index="247">
            vlineto
            39 -15 25 -20 212 callgsubr
            return
          </CharString>
          <CharString index="248">
            25 710 callsubr
            148 413 callsubr
            return
          </CharString>
          <CharString index="249">
            13 6 6 13 176 callsubr
            return
          </CharString>
          <CharString index="250">
            hlineto
            54 102 callsubr
            return
          </CharString>
          <CharString index="251">
            vhcurveto
            -4 vlineto
            -40 -13 532 callsubr
            return
          </CharString>
          <CharString index="252">
            -58 callsubr
            320 285 callsubr
            -42 vlineto
            -18 2 -14 6 -13 vhcurveto
            -149 hlineto
            -69 -44 -44 208 callgsubr
            6 11 75 callgsubr
            122 hlineto
            -9 -16 -5 -20 -23 vvcurveto
            -33 vlineto
            -93 53 -52 92 vhcurveto
            94 hlineto
            return
          </CharString>
          <CharString index="253">
            vlineto
            -85 -62 -185 57 callgsubr
            return
          </CharString>
          <CharString index="254" raw="1">
            4907f728 0a0b  
          </CharString>
          <CharString index="255" raw="1">
            27c750ef 1ef7321d 0b 
          </CharString>
          <CharString index="256">
            339 callgsubr
            28 hlineto
            54 31 96 callgsubr
            return
          </CharString>
          <CharString index="257">
            390 callsubr
            -7 10 vhcurveto
            return
          </CharString>
          <CharString index="258">
            307 rmoveto
            -50 -26 -19 -40 vhcurveto
            -10 44 callsubr
            120 -84 callgsubr
            return
          </CharString>
          <CharString index="259">
            141 callgsubr
            312 callsubr
            return
          </CharString>
          <CharString index="260">
            45 40 18 35 16 hvcurveto
            4 return
          </CharString>
          <CharString index="261">
            hlineto
            -98 -60 -54 -104 hvcurveto
            -114 243 callsubr
            -10 561 callsubr
            29 22 50 vhcurveto
            return
          </CharString>
          <CharString index="262">
            611 callsubr
            171 callgsubr
            return
          </CharString>
          <CharString index="263">
            -14 -5 -6 -13 285 callgsubr
            return
          </CharString>
          <CharString index="264">
            21 188 callsubr
            return
          </CharString>
          <CharString index="265">
            7 vlineto
            15 -7 8 -13 vhcurveto
            -48 hlineto
            -11 532 callgsubr
            -7 vlineto
            -56 -28 -20 -54 vhcurveto
            -63 hlineto
            -54 508 callsubr
            32 518 callgsubr
            54 vhcurveto
            132 205 callgsubr
            return
          </CharString>
          <CharString index="266">
            hlineto
            -77 616 callsubr
            45 14 vlineto
            88 47 383 callsubr
            -19 10 vhcurveto
            5 return
          </CharString>
          <CharString index="267">
            13 -7 193 callsubr
            return
          </CharString>
          <CharString index="268">
            46 callgsubr
            311 callsubr
            return
          </CharString>
          <CharString index="269">
            hlineto
            -23 -13 522 callgsubr
            -79 hlineto
            -34 callsubr
            -94 vlineto
            return
          </CharString>
          <CharString index="270">
            hmoveto
            175 callsubr
            return
          </CharString>
          <CharString index="271">
            hhcurveto
            184 callsubr
            return
          </CharString>
          <CharString index="272">
            vlineto
            229 callgsubr
            return
          </CharString>
          <CharString index="273">
            -8 -4 -4 -7 vhcurveto
            return
          </CharString>
          <CharString index="274">
            vlineto
            -61 -35 -19 -41 -16 190 callgsubr
            return
          </CharString>
          <CharString index="275">
            -75 callgsubr
            -87 114 callsubr
            return
          </CharString>
          <CharString index="276">
            vlineto
            161 callsubr
            return
          </CharString>
          <CharString index="277">
            250 callgsubr
            229 72 callsubr
            -669 3 callsubr
            return
          </CharString>
          <CharString index="278">
            -7 314 callsubr
            231 vlineto
            402 callgsubr
            -49 670 callsubr
            -21 vlineto
            -75 14 -73 25 -56 vhcurveto
            -4 -1 -134 229 rlineto
            10 -6 -9 6 -20 hhcurveto
            return
          </CharString>
          <CharString index="279">
            132 callsubr
            -100 -54 -55 -102 hvcurveto
            -105 vlineto
            return
          </CharString>
          <CharString index="280">
            315 callsubr
            hvcurveto
            return
          </CharString>
          <CharString index="281">
            4 callsubr
            304 125 callgsubr
            -43 114 callsubr
            -110 hlineto
            -80 -52 -36 -79 hvcurveto
            -12 vlineto
            -82 43 -31 89 vhcurveto
            104 hlineto
            34 16 -11 408 callsubr
            -22 7 42 183 callsubr
            return
          </CharString>
          <CharString index="282">
            187 callsubr
            669 -36 callgsubr
            -669 3 callsubr
            return
          </CharString>
          <CharString index="283">
            hvcurveto
            42 -11 callsubr
            return
          </CharString>
          <CharString index="284">
            vlineto
            46 callgsubr
            return
          </CharString>
          <CharString index="285">
            -56 callsubr
            61 236 callgsubr
          </CharString>
          <CharString index="286">
            0 1 6 hvcurveto
            -73 360 callgsubr
            -145 hlineto
            458 callgsubr
            443 callsubr
            hvcurveto
            -8 6 9 -5 12 hhcurveto
            38 hlineto
            12 -4 callgsubr
            113 186 callsubr
            -147 vlineto
            -14 7 -5 13 vhcurveto
            52 hlineto
            13 6 -33 callsubr
            return
          </CharString>
          <CharString index="287">
            112 callsubr
            98 194 callgsubr
            endchar
          </CharString>
          <CharString index="288">
            440 callsubr
            -253 vlineto
            -68 -34 -45 -82 vhcurveto
            -44 hlineto
            -77 -57 callgsubr
            -19 10 vhcurveto
            5 vlineto
            return
          </CharString>
          <CharString index="289">
            347 callsubr
            -61 vhcurveto
            -79 hlineto
            -14 -6 -7 526 callgsubr
            599 callgsubr
            55 96 hvcurveto
            return
          </CharString>
          <CharString index="290">
            hvcurveto
            6 195 callgsubr
            return
          </CharString>
          <CharString index="291">
            -27 169 callgsubr
            return
          </CharString>
          <CharString index="292">
            13 189 callgsubr
            42 276 callsubr
            return
          </CharString>
          <CharString index="293">
            hlineto
            8 3 -5 -8 hvcurveto
            return
          </CharString>
          <CharString index="294">
            12 5 4 13 hvcurveto
            return
          </CharString>
          <CharString index="295">
            hlineto
            48 30 17 25 return
          </CharString>
          <CharString index="296">
            623 callgsubr
            -271 hlineto
            -12 -7 68 callgsubr
            -79 hlineto
            -13 -7 -6 -13 hvcurveto
            -43 vlineto
            -12 7 514 callgsubr
            return
          </CharString>
          <CharString index="297">
            -91 44 -41 88 vhcurveto
            35 hlineto
            14 7 5 15 hvcurveto
            34 vlineto
            13 -7 7 -14 vhcurveto
            -35 hlineto
            -41 -7 19 39 39 10 24 43 hvcurveto
            31 hlineto
            87 4 -54 -112 52 hvcurveto
            -10 5 7 -5 8 hhcurveto
            4 3 1 2 5 hvcurveto
            32 13 rlineto
            9 3 3 6 7 vvcurveto
            3 -1 5 -2 4 vhcurveto
            125 -52 -27 89 -135 hhcurveto
            return
          </CharString>
          <CharString index="298">
            hlineto
            27 -15 -26 16 -42 hhcurveto
            -289 hlineto
            -13 -6 154 callgsubr
            170 callgsubr
            39 610 callgsubr
            -63 467 callsubr
            -78 195 callsubr
            105 605 callsubr
            76 vlineto
            33 -12 23 -24 11 vhcurveto
            4 95 vlineto
            27 5 -11 -24 hvcurveto
            return
          </CharString>
          <CharString index="299">
            241 rmoveto
            695 callsubr
            -54 -31 29 54 hvcurveto
            57 8 callgsubr
            29 hlineto
            14 6 7 12 310 callsubr
            -41 hlineto
            return
          </CharString>
          <CharString index="300">
            5 -11 vhcurveto
            -41 hlineto
            245 callgsubr
            return
          </CharString>
          <CharString index="301">
            hlineto
            69 callsubr
            return
          </CharString>
          <CharString index="302">
            hlineto
            -14 66 callgsubr
            14 vhcurveto
            return
          </CharString>
          <CharString index="303">
            vlineto
            185 callgsubr
            return
          </CharString>
          <CharString index="304">
            3 -11 hhcurveto
            -48 79 callgsubr
            return
          </CharString>
          <CharString index="305">
            vlineto
            290 callsubr
            return
          </CharString>
          <CharString index="306">
            333 callsubr
            512 -77 callsubr
            return
          </CharString>
          <CharString index="307">
            hlineto
            -8 -5 -2 -8 -3 543 callgsubr
            -5 2 -7 hhcurveto
            -46 hlineto
            -9 -1 309 callsubr
            9 hhcurveto
            endchar
          </CharString>
          <CharString index="308">
            80 vvcurveto
            209 callsubr
          </CharString>
          <CharString index="309">
            -60 callgsubr
            314 172 callsubr
            return
          </CharString>
          <CharString index="310">
            hlineto
            -14 7 -5 12 vhcurveto
            51 hlineto
            13 return
          </CharString>
          <CharString index="311">
            hlineto
            26 20 12 31 hvcurveto
            return
          </CharString>
          <CharString index="312">
            -14 6 -6 12 vhcurveto
            return
          </CharString>
          <CharString index="313">
            -53 callgsubr
            109 -75 callgsubr
            return
          </CharString>
          <CharString index="314">
            -75 callgsubr
            -36 vlineto
            -42 -22 647 callsubr
            return
          </CharString>
          <CharString index="315">
            388 callsubr
            60 hlineto
            return
          </CharString>
          <CharString index="316">
            -80 callgsubr
            endchar
          </CharString>
          <CharString index="317">
            365 callsubr
            27 19 rlineto
            6 5 4 6 6 vvcurveto
            7 -2 3 -6 9 vhcurveto
            -11 return
          </CharString>
          <CharString index="318">
            -12 -5 -5 -13 hvcurveto
            -59 vlineto
            -12 5 -7 12 vhcurveto
            63 468 callgsubr
            return
          </CharString>
          <CharString index="319">
            vlineto
            402 callgsubr
            -51 670 callsubr
            -42 446 callgsubr
            -38 vhcurveto
            -55 hlineto
            -55 -24 488 callsubr
            3 5 8 vhcurveto
            62 -64 callgsubr
            endchar
          </CharString>
          <CharString index="320">
            -14 -12 -23 callsubr
            12 -6 14 vhcurveto
            return
          </CharString>
          <CharString index="321">
            -6 -3 -7 -5 hvcurveto
            -63 -107 rlineto
            -6 -4 return
          </CharString>
          <CharString index="322">
            414 callgsubr
            5 -3 return
          </CharString>
          <CharString index="323">
            13 300 callgsubr
            return
          </CharString>
          <CharString index="324">
            hlineto
            219 callgsubr
            return
          </CharString>
          <CharString index="325">
            -13 hvcurveto
            -43 vlineto
            -12 return
          </CharString>
          <CharString index="326">
            -20 -19 -12 -28 -44 vvcurveto
            -87 56 -50 93 vhcurveto
            90 hlineto
            94 57 63 98 hvcurveto
            123 vlineto
            16 25 9 30 33 vvcurveto
            68 vlineto
            52 -16 37 -33 20 vhcurveto
            14 13 10 20 28 vvcurveto
            57 vlineto
            8 4 3 8 vhcurveto
            72 hlineto
            185 callsubr
            endchar
          </CharString>
          <CharString index="327">
            233 callgsubr
            93 hlineto
            return
          </CharString>
          <CharString index="328">
            rmoveto
            -14 -4 5 12 -8 hvcurveto
            -143 230 rlineto
            11 649 callsubr
            return
          </CharString>
          <CharString index="329">
            262 callgsubr
            -79 hlineto
            return
          </CharString>
          <CharString index="330">
            20 callgsubr
            51 hlineto
            13 189 callgsubr
            return
          </CharString>
          <CharString index="331">
            64 249 callgsubr
            return
          </CharString>
          <CharString index="332">
            531 callsubr
            -2 6 return
          </CharString>
          <CharString index="333">
            -8 -3 -4 -8 return
          </CharString>
          <CharString index="334">
            -8 24 vhcurveto
            123 -13 rlineto
            13 -2 5 8 12 vvcurveto
            53 653 callsubr
            -13 -1 vhcurveto
            -125 -15 15 151 rlineto
            134 callgsubr
            -8 -4 -13 2 hvcurveto
            14 -151 -121 15 rlineto
            -13 1 -4 -6 -11 vvcurveto
            -53 vlineto
            -12 4 -8 13 2 vhcurveto
            return
          </CharString>
          <CharString index="335">
            rmoveto
            48 hlineto
            11 5 533 callsubr
            64 551 callgsubr
            -2 396 callsubr
            return
          </CharString>
          <CharString index="336">
            hlineto
            313 callgsubr
            return
          </CharString>
          <CharString index="337">
            571 callsubr
            -6 4 -11 161 callgsubr
            11 6 6 11 hvcurveto
            96 vlineto
            12 -7 359 callsubr
          </CharString>
          <CharString index="338">
            rmoveto
            -11 6 -6 10 433 callgsubr
            -7 4 -10 vhcurveto
            -60 hlineto
            -10 -6 -5 -12 hvcurveto
            -179 -95 rmoveto
            -11 327 callsubr
            61 hlineto
            10 501 callsubr
            -9 vhcurveto
            -61 hlineto
            -10 421 callgsubr
            endchar
          </CharString>
          <CharString index="339">
            148 163 callsubr
            return
          </CharString>
          <CharString index="340">
            -111 vlineto
            -108 51 -52 98 vhcurveto
            43 callsubr
            return
          </CharString>
          <CharString index="341">
            hlineto
            118 callgsubr
            -271 vlineto
            -57 -31 -33 -56 vhcurveto
            -59 hlineto
            -55 return
          </CharString>
          <CharString index="342">
            -72 callgsubr
            endchar
          </CharString>
          <CharString index="343">
            -8 -4 -4 -8 vhcurveto
            -104 hlineto
            -86 -50 -33 -89 return
          </CharString>
          <CharString index="344">
            -6 -6 4 hvcurveto
            63 681 callgsubr
            6 -3 return
          </CharString>
          <CharString index="345">
            12 31 hvcurveto
            96 -77 callsubr
            return
          </CharString>
          <CharString index="346">
            hlineto
            -13 -6 154 callgsubr
            6 -6 14 vhcurveto
            12 65 callgsubr
            -89 195 callsubr
            116 331 callsubr
            return
          </CharString>
          <CharString index="347">
            hlineto
            81 48 44 78 hvcurveto
            47 vlineto
            77 -48 37 -81 vhcurveto
            -90 hlineto
            -35 -15 8 38 hvcurveto
            8 vlineto
            37 15 9 35 vhcurveto
            145 hlineto
            25 21 12 31 hvcurveto
            105 -77 callsubr
            72 165 callgsubr
          </CharString>
          <CharString index="348">
            57 60 99 1 hvcurveto
            66 vlineto
            101 return
          </CharString>
          <CharString index="349">
            -5 12 hhcurveto
            39 hlineto
            11 -4 callgsubr
            132 hlineto
            8 return
          </CharString>
          <CharString index="350">
            vlineto
            256 callsubr
            35 callgsubr
            return
          </CharString>
          <CharString index="351">
            345 callgsubr
            -8 vhcurveto
            -37 hlineto
            return
          </CharString>
          <CharString index="352">
            12 6 5 13 hvcurveto
            127 vlineto
            99 return
          </CharString>
          <CharString index="353">
            420 callgsubr
            7 vhcurveto
            return
          </CharString>
          <CharString index="354">
            -25 hlineto
            -45 -32 -17 -25 return
          </CharString>
          <CharString index="355">
            4 -2 258 callgsubr
            return
          </CharString>
          <CharString index="356">
            rmoveto
            -4 -5 -3 -5 -6 538 callgsubr
            12 7 4 6 5 hvcurveto
            12 11 117 133 40 51 rrcurveto
            7 8 4 4 8 vvcurveto
            6 -4 4 -5 5 vhcurveto
            -19 17 rlineto
            7 -6 -4 1 -4 hhcurveto
            -7 -4 -4 -7 -7 hvcurveto
            return
          </CharString>
          <CharString index="357">
            hlineto
            54 21 378 callsubr
            7 76 callsubr
          </CharString>
          <CharString index="358">
            354 callsubr
            -3 527 callgsubr
            -3 return
          </CharString>
          <CharString index="359">
            -5 623 4 callsubr
            return
          </CharString>
          <CharString index="360">
            47 vlineto
            77 -48 37 -80 vhcurveto
            return
          </CharString>
          <CharString index="361">
            20 -22 -46 hvcurveto
            return
          </CharString>
          <CharString index="362">
            686 callsubr
            5 7 vvcurveto
            7 -3 4 -6 9 vhcurveto
            return
          </CharString>
          <CharString index="363">
            -108 51 -52 98 vhcurveto
            return
          </CharString>
          <CharString index="364">
            420 callgsubr
            8 vhcurveto
            return
          </CharString>
          <CharString index="365">
            577 callsubr
            -21 hlineto
            -55 -88 callgsubr
            13 6 82 callgsubr
            22 18 44 return
          </CharString>
          <CharString index="366">
            484 callsubr
            -11 hhcurveto
            -47 hlineto
            -11 214 callsubr
            3 -6 8 706 callgsubr
            5 2 8 3 560 callsubr
            7 hhcurveto
            47 hlineto
            8 726 callsubr
          </CharString>
          <CharString index="367">
            0 -33 -16 -35 -37 vhcurveto
            -43 -41 639 callgsubr
            6 -7 9 vhcurveto
            65 hlineto
            14 444 callgsubr
            return
          </CharString>
          <CharString index="368">
            hlineto
            268 callsubr
            return
          </CharString>
          <CharString index="369">
            rmoveto
            69 callsubr
            return
          </CharString>
          <CharString index="370">
            643 callsubr
            -50 -20 -16 -50 vhcurveto
            return
          </CharString>
          <CharString index="371">
            -7 -4 4 8 hvcurveto
            127 204 callgsubr
            return
          </CharString>
          <CharString index="372">
            vhcurveto
            71 hlineto
            101 58 54 103 hvcurveto
            return
          </CharString>
          <CharString index="373">
            -11 -8 -19 -28 vvcurveto
            return
          </CharString>
          <CharString index="374">
            505 callgsubr
            9 hhcurveto
            48 hlineto
            return
          </CharString>
          <CharString index="375">
            -61 callgsubr
            65 hlineto
            118 callgsubr
            -512 vlineto
            -14 7 -5 12 vhcurveto
            return
          </CharString>
          <CharString index="376">
            vhcurveto
            25 hlineto
            61 36 325 callgsubr
            return
          </CharString>
          <CharString index="377">
            -77 callsubr
            161 -1 callsubr
            return
          </CharString>
          <CharString index="378">
            rlineto
            -4 -4 -2 -4 -5 vvcurveto
            -6 525 callsubr
            return
          </CharString>
          <CharString index="379">
            -13 -6 -6 607 callgsubr
            return
          </CharString>
          <CharString index="380">
            646 callsubr
            32 -20 return
          </CharString>
          <CharString index="381">
            -4 -13 hvcurveto
            -467 vlineto
            -49 return
          </CharString>
          <CharString index="382">
            507 callsubr
            8 vhcurveto
            return
          </CharString>
          <CharString index="383">
            vlineto
            12 447 callgsubr
            return
          </CharString>
          <CharString index="384">
            -51 -24 -34 -58 vhcurveto
            return
          </CharString>
          <CharString index="385">
            -7 -3 4 6 hvcurveto
            96 vlineto
            54 25 23 46 vhcurveto
            20 hlineto
            13 6 6 13 176 callgsubr
            return
          </CharString>
          <CharString index="386">
            13 450 callgsubr
            return
          </CharString>
          <CharString index="387">
            vlineto
            37 20 19 33 710 callgsubr
            6 5 13 hvcurveto
            44 299 callsubr
            -64 hlineto
            -35 -18 18 35 hvcurveto
            40 vlineto
            38 17 17 31 vhcurveto
            19 -79 callsubr
            return
          </CharString>
          <CharString index="388">
            hvcurveto
            -52 729 callsubr
            603 callgsubr
            9 529 callgsubr
            return
          </CharString>
          <CharString index="389">
            490 callsubr
            132 186 callsubr
            return
          </CharString>
          <CharString index="390">
            563 callsubr
            -68 hlineto
            -12 -5 -5 -11 hvcurveto
            return
          </CharString>
          <CharString index="391">
            -50 -14 28 48 48 14 27 50 51 14 -27 -48 return
          </CharString>
          <CharString index="392">
            -4 hlineto
            -21 266 callsubr
            return
          </CharString>
          <CharString index="393">
            hlineto
            7 4 5 7 vhcurveto
            return
          </CharString>
          <CharString index="394">
            vvcurveto
            34 490 callsubr
            return
          </CharString>
          <CharString index="395">
            400 callgsubr
            -2 6 -8 hhcurveto
            return
          </CharString>
          <CharString index="396">
            -101 61 -58 99 vhcurveto
            return
          </CharString>
          <CharString index="397">
            -50 428 callgsubr
            return
          </CharString>
          <CharString index="398">
            76 callgsubr
            -33 vlineto
            -93 53 -52 93 vhcurveto
            93 hlineto
            return
          </CharString>
          <CharString index="399">
            hlineto
            -91 -51 -41 -83 hvcurveto
            -15 vlineto
            -42 17 -27 36 -14 vhcurveto
            -4 vlineto
            -36 -14 -17 -32 -41 vvcurveto
            -11 vlineto
            -93 51 -38 92 vhcurveto
            86 hlineto
            78 56 28 95 4 hvcurveto
            52 hlineto
            34 677 callgsubr
            return
          </CharString>
          <CharString index="400">
            52 hlineto
            13 7 return
          </CharString>
          <CharString index="401">
            40 25 hvcurveto
            1 2 3 335 callgsubr
            -21 17 rlineto
            6 -7 -4 1 -4 hhcurveto
            return
          </CharString>
          <CharString index="402">
            7 -13 vhcurveto
            -39 hlineto
            -15 437 callsubr
            78 vhcurveto
            return
          </CharString>
          <CharString index="403">
            -5 -7 -8 -5 1 709 callsubr
            return
          </CharString>
          <CharString index="404">
            273 callsubr
            -57 hvcurveto
            return
          </CharString>
          <CharString index="405">
            hlineto
            290 callgsubr
            return
          </CharString>
          <CharString index="406">
            530 callsubr
            -13 vhcurveto
            return
          </CharString>
          <CharString index="407">
            -7 13 vhcurveto
            42 hlineto
            return
          </CharString>
          <CharString index="408">
            230 callgsubr
            49 -104 callsubr
            -244 hlineto
            244 callgsubr
            return
          </CharString>
          <CharString index="409">
            hlineto
            118 callgsubr
            -285 vlineto
            -48 -25 -38 -61 vhcurveto
            -32 -26 callgsubr
            -59 callgsubr
            6 -13 vhcurveto
            -55 hlineto
            return
          </CharString>
          <CharString index="410">
            vlineto
            402 callgsubr
            -108 hlineto
            -14 -9 -5 -8 -11 hvcurveto
            -118 -93 rlineto
            207 440 callgsubr
            337 -104 callsubr
            endchar
          </CharString>
          <CharString index="411">
            -4 11 vhcurveto
            65 493 callgsubr
            11 hhcurveto
            65 655 callgsubr
            10 5 -2 4 525 callgsubr
            return
          </CharString>
          <CharString index="412">
            hlineto
            13 437 callgsubr
            -13 vhcurveto
            return
          </CharString>
          <CharString index="413">
            hlineto
            -51 -21 29 53 hvcurveto
            80 vlineto
            53 21 29 51 vhcurveto
            return
          </CharString>
          <CharString index="414">
            340 callsubr
            -14 vhcurveto
            -4 vlineto
            -40 -14 -18 -34 return
          </CharString>
          <CharString index="415">
            -4 -8 vhcurveto
            426 callsubr
            return
          </CharString>
          <CharString index="416">
            -6 -6 4 hvcurveto
            62 681 callgsubr
            7 -3 return
          </CharString>
          <CharString index="417">
            hvcurveto
            43 84 callsubr
            return
          </CharString>
          <CharString index="418">
            -160 hlineto
            -7 -4 4 8 hvcurveto
            return
          </CharString>
          <CharString index="419">
            -11 388 callgsubr
            return
          </CharString>
          <CharString index="420">
            hvcurveto
            -44 vlineto
            -13 6 return
          </CharString>
          <CharString index="421">
            -3 4 8 hvcurveto
            return
          </CharString>
          <CharString index="422">
            11 6 4 13 return
          </CharString>
          <CharString index="423">
            10 24 hvcurveto
            24 vlineto
            25 10 10 23 vhcurveto
            14 hlineto
            23 8 -10 -25 hvcurveto
            -24 vlineto
            -24 -8 -10 -24 vhcurveto
            15 -40 rmoveto
            38 24 22 40 hvcurveto
            51 vlineto
            38 -24 22 -38 vhcurveto
            -43 hlineto
            -39 return
          </CharString>
          <CharString index="424">
            502 callgsubr
            hvcurveto
            107 vlineto
            99 -65 46 -102 return
          </CharString>
          <CharString index="425">
            vlineto
            39 -16 141 callsubr
            return
          </CharString>
          <CharString index="426">
            13 14 vvcurveto
            34 282 callsubr
            return
          </CharString>
          <CharString index="427">
            653 callsubr
            -12 vhcurveto
            return
          </CharString>
          <CharString index="428">
            vlineto
            37 16 9 34 vhcurveto
            return
          </CharString>
          <CharString index="429">
            hlineto
            34 16 -12 -38 hvcurveto
            return
          </CharString>
          <CharString index="430">
            518 callgsubr
            55 vhcurveto
            return
          </CharString>
          <CharString index="431">
            561 callgsubr
            -12 -6 562 callgsubr
            return
          </CharString>
          <CharString index="432">
            31 callsubr
            -105 vlineto
            return
          </CharString>
          <CharString index="433">
            60 -58 92 vhcurveto
            return
          </CharString>
          <CharString index="434">
            5 -6 10 vhcurveto
            return
          </CharString>
          <CharString index="435">
            vvcurveto
            -28 496 callgsubr
            6 4 5 6 vvcurveto
            7 -2 4 -6 8 693 callgsubr
            return
          </CharString>
          <CharString index="436">
            278 rmoveto
            -68 -34 -45 -82 vhcurveto
            -44 hlineto
            -77 -35 32 67 hvcurveto
            27 523 callsubr
            45 140 callsubr
            return
          </CharString>
          <CharString index="437">
            418 callgsubr
            680 callsubr
          </CharString>
          <CharString index="438">
            186 callgsubr
            70 vlineto
            33 -13 23 -23 11 vhcurveto
            4 return
          </CharString>
          <CharString index="439">
            6 8 vvcurveto
            4 -2 5 -1 3 vhcurveto
            46 -23 -42 23 -62 hhcurveto
            return
          </CharString>
          <CharString index="440">
            -14 6 402 callsubr
            12 7 -33 callsubr
            return
          </CharString>
          <CharString index="441">
            -14 7 -5 12 vhcurveto
            51 hlineto
            13 7 -33 callsubr
            return
          </CharString>
          <CharString index="442">
            85 rmoveto
            254 callgsubr
            return
          </CharString>
          <CharString index="443">
            -10 -7 -18 hvcurveto
            -9 vlineto
            -36 return
          </CharString>
          <CharString index="444">
            -44 362 callgsubr
            return
          </CharString>
          <CharString index="445">
            hmoveto
            173 callsubr
            return
          </CharString>
          <CharString index="446">
            35 71 hvcurveto
            11 vlineto
            8 return
          </CharString>
          <CharString index="447">
            vlineto
            -46 17 -28 41 return
          </CharString>
          <CharString index="448">
            -91 66 -44 88 vhcurveto
            42 -4 hlineto
            0 -23 -12 -38 -36 vhcurveto
            -62 -57 rlineto
            -3 -3 -1 150 callsubr
            63 hlineto
            11 8 5 5 5 hvcurveto
            8 6 return
          </CharString>
          <CharString index="449">
            47 420 rmoveto
            -12 6 -4 10 vhcurveto
            57 hlineto
            11 707 callsubr
            206 vlineto
            12 -6 4 -8 -5 -6 -3 -6 -3 vhcurveto
            -43 -97 rlineto
            -10 -25 -8 -18 -29 vvcurveto
            return
          </CharString>
          <CharString index="450">
            rmoveto
            -68 -35 394 callgsubr
            4 -5 -7 hvcurveto
            return
          </CharString>
          <CharString index="451">
            -65 callsubr
            -80 114 callsubr
            return
          </CharString>
          <CharString index="452">
            2 3 465 callsubr
            return
          </CharString>
          <CharString index="453">
            -4 -6 -11 hvcurveto
            return
          </CharString>
          <CharString index="454">
            vlineto
            -49 -15 -29 return
          </CharString>
          <CharString index="455">
            156 callsubr
            304 470 callgsubr
            return
          </CharString>
          <CharString index="456">
            -49 vhcurveto
            -101 hlineto
            482 callsubr
            27 -40 callsubr
            return
          </CharString>
          <CharString index="457">
            hlineto
            199 callsubr
            67 -99 callsubr
            endchar
          </CharString>
          <CharString index="458">
            193 callgsubr
            6 -4 8 6 4 3 6 4 515 callgsubr
          </CharString>
          <CharString index="459">
            -4 vlineto
            377 callsubr
            return
          </CharString>
          <CharString index="460">
            366 callsubr
            -103 return
          </CharString>
          <CharString index="461">
            288 callsubr
            -47 hlineto
            -7 -5 -2 -8 return
          </CharString>
          <CharString index="462">
            13 -6 4 -11 vhcurveto
            return
          </CharString>
          <CharString index="463">
            rlineto
            6 12 15 3 17 hhcurveto
            53 hlineto
            13 6 6 12 hvcurveto
            41 642 callgsubr
            -102 13 callgsubr
            -76 vlineto
            644 callsubr
            return
          </CharString>
          <CharString index="464">
            7 10 14 4 17 hhcurveto
            319 callgsubr
            -101 13 callgsubr
            -76 vlineto
            -97 64 -53 79 vhcurveto
            22 return
          </CharString>
          <CharString index="465">
            rmoveto
            49 408 callgsubr
            return
          </CharString>
          <CharString index="466">
            215 callgsubr
            endchar
          </CharString>
          <CharString index="467">
            vlineto
            99 -59 56 -97 vhcurveto
            return
          </CharString>
          <CharString index="468">
            hlineto
            -13 -6 -6 -13 hvcurveto
            return
          </CharString>
          <CharString index="469">
            371 callsubr
            hvcurveto
            return
          </CharString>
          <CharString index="470">
            -48 -26 -27 -50 vhcurveto
            -28 hlineto
            -54 -31 29 54 hvcurveto
            57 316 callgsubr
            55 vhcurveto
            29 630 callsubr
            -42 hlineto
            return
          </CharString>
          <CharString index="471">
            hlineto
            59 callsubr
            return
          </CharString>
          <CharString index="472">
            vvcurveto
            -28 12 -27 24 -30 vhcurveto
            -11 8 9 -6 11 hhcurveto
            7 6 1 4 5 hvcurveto
            return
          </CharString>
          <CharString index="473">
            7 49 397 callsubr
            return
          </CharString>
          <CharString index="474">
            -61 callgsubr
            52 hlineto
            118 callgsubr
            return
          </CharString>
          <CharString index="475">
            10 400 callgsubr
            return
          </CharString>
          <CharString index="476">
            hlineto
            -10 436 callgsubr
            return
          </CharString>
          <CharString index="477">
            -23 -13 -16 -22 hvcurveto
            return
          </CharString>
          <CharString index="478">
            491 callsubr
            -13 return
          </CharString>
          <CharString index="479">
            583 callsubr
            -21 -10 -6 -38 vhcurveto
            -28 hlineto
            -12 -3 -3 -12 hvcurveto
            -17 vlineto
            -12 3 -3 12 vhcurveto
            return
          </CharString>
          <CharString index="480">
            425 callsubr
            endchar
          </CharString>
          <CharString index="481">
            429 786 415 callgsubr
            return
          </CharString>
          <CharString index="482">
            588 callgsubr
            -79 hlineto
            -14 713 callgsubr
            -61 vlineto
            -91 52 666 callgsubr
            56 38 20 34 19 hvcurveto
            4 return
          </CharString>
          <CharString index="483">
            441 callgsubr
            -136 vlineto
            208 290 512 callsubr
            return
          </CharString>
          <CharString index="484">
            20 -12 -24 11 -36 463 callgsubr
            -16 -33 20 return
          </CharString>
          <CharString index="485">
            -20 -60 615 callgsubr
            -6 11 vhcurveto
            54 hlineto
            13 return
          </CharString>
          <CharString index="486">
            vlineto
            -11 5 -7 672 callsubr
            6 11 hvcurveto
            return
          </CharString>
          <CharString index="487">
            361 callsubr
            -43 547 callgsubr
            return
          </CharString>
          <CharString index="488">
            hvcurveto
            -48 vlineto
            -12 6 -7 273 callsubr
            return
          </CharString>
          <CharString index="489">
            vlineto
            478 callsubr
            return
          </CharString>
          <CharString index="490">
            608 callsubr
            -16 25 return
          </CharString>
          <CharString index="491">
            605 rmoveto
            12 -5 6 -14 vhcurveto
            return
          </CharString>
          <CharString index="492">
            485 callgsubr
            -4 hlineto
            return
          </CharString>
          <CharString index="493">
            4 vlineto
            616 callgsubr
            return
          </CharString>
          <CharString index="494">
            -87 52 -92 131 vhcurveto
            return
          </CharString>
          <CharString index="495">
            rmoveto
            482 callgsubr
            return
          </CharString>
          <CharString index="496">
            50 391 callgsubr
            return
          </CharString>
          <CharString index="497">
            -4 -3 vvcurveto
            -7 5 return
          </CharString>
          <CharString index="498">
            vhcurveto
            -4 -1 -134 229 rlineto
            10 -6 -9 6 -20 hhcurveto
            -50 hlineto
            -10 -6 -7 -8 -5 1 -5 4 -5 hvcurveto
            57 -83 39 -55 52 -61 return
          </CharString>
          <CharString index="499">
            332 callgsubr
            -200 hlineto
            -13 589 callsubr
            13 vhcurveto
            endchar
          </CharString>
          <CharString index="500">
            hlineto
            -12 -7 -5 return
          </CharString>
          <CharString index="501">
            -4 hlineto
            83 callgsubr
            return
          </CharString>
          <CharString index="502">
            rmoveto
            -13 7 -6 216 callsubr
            6 13 hvcurveto
            52 558 callgsubr
            return
          </CharString>
          <CharString index="503">
            6 -9 hhcurveto
            -46 hlineto
            -8 -4 -2 -8 -4 401 callgsubr
            return
          </CharString>
          <CharString index="504">
            183 callsubr
            -6 vlineto
            return
          </CharString>
          <CharString index="505">
            451 rmoveto
            166 callsubr
            -79 hlineto
            return
          </CharString>
          <CharString index="506">
            442 callgsubr
            -59 vlineto
            29 -40 return
          </CharString>
          <CharString index="507">
            13 13 21 30 vvcurveto
            648 callsubr
            return
          </CharString>
          <CharString index="508">
            484 callgsubr
            endchar
          </CharString>
          <CharString index="509">
            -5 13 vhcurveto
            53 hlineto
            return
          </CharString>
          <CharString index="510">
            -94 60 -57 92 vhcurveto
            return
          </CharString>
          <CharString index="511">
            633 callgsubr
            5 3 5 7 vvcurveto
            7 -2 462 callgsubr
            return
          </CharString>
          <CharString index="512">
            487 callgsubr
            9 hhcurveto
            45 hlineto
            7 6 2 8 return
          </CharString>
          <CharString index="513">
            hlineto
            13 6 -33 callsubr
            512 vlineto
            7 4 5 7 vhcurveto
            67 -104 callsubr
            endchar
          </CharString>
          <CharString index="514">
            -13 6 -4 11 vhcurveto
            63 503 callgsubr
            return
          </CharString>
          <CharString index="515">
            -38 hvcurveto
            -12 vlineto
            -37 -16 -13 -34 vhcurveto
            -86 hlineto
            -47 return
          </CharString>
          <CharString index="516">
            hlineto
            -35 -19 19 35 hvcurveto
            return
          </CharString>
          <CharString index="517">
            15 36 hvcurveto
            9 vlineto
            18 return
          </CharString>
          <CharString index="518">
            hlineto
            -98 -61 -53 -105 hvcurveto
            return
          </CharString>
          <CharString index="519">
            vlineto
            51 684 callgsubr
            return
          </CharString>
          <CharString index="520">
            vlineto
            -73 callgsubr
            return
          </CharString>
          <CharString index="521">
            -22 25 49 hvcurveto
            return
          </CharString>
          <CharString index="522">
            rmoveto
            -45 -25 -33 -58 vhcurveto
            -19 618 callgsubr
            156 hlineto
            118 callgsubr
            return
          </CharString>
          <CharString index="523">
            rmoveto
            13 -7 5 -11 vhcurveto
            -63 hlineto
            -12 -6 -5 -13 hvcurveto
            -59 vlineto
            -12 6 662 callsubr
          </CharString>
          <CharString index="524">
            -4 vlineto
            -32 -14 -28 434 callgsubr
            return
          </CharString>
          <CharString index="525">
            132 callgsubr
            10 return
          </CharString>
          <CharString index="526">
            hhcurveto
            38 hlineto
            12 return
          </CharString>
          <CharString index="527">
            6 -7 10 hhcurveto
            return
          </CharString>
          <CharString index="528">
            rmoveto
            283 callsubr
            -121 379 callsubr
            return
          </CharString>
          <CharString index="529">
            hlineto
            14 callgsubr
            return
          </CharString>
          <CharString index="530">
            vlineto
            -108 52 -52 97 488 callgsubr
            return
          </CharString>
          <CharString index="531">
            vlineto
            -54 -28 -29 -54 -24 callgsubr
            return
          </CharString>
          <CharString index="532">
            504 callgsubr
            -10 hhcurveto
            return
          </CharString>
          <CharString index="533">
            -159 hlineto
            -7 -4 4 8 hvcurveto
            return
          </CharString>
          <CharString index="534">
            225 callgsubr
            endchar
          </CharString>
          <CharString index="535">
            -8 -3 -13 -6 hvcurveto
            -51 479 callsubr
            32 hlineto
            8 529 callgsubr
            74 100 rlineto
            12 8 return
          </CharString>
          <CharString index="536">
            rmoveto
            40 12 -15 -40 hvcurveto
            -76 vlineto
            -40 -12 -15 -40 vhcurveto
            -21 hlineto
            -41 -12 15 40 hvcurveto
            76 vlineto
            40 12 15 41 vhcurveto
            return
          </CharString>
          <CharString index="537">
            12 -6 4 -10 vhcurveto
            -68 665 callgsubr
            -119 vlineto
            -12 5 -7 672 callsubr
            5 12 hvcurveto
            return
          </CharString>
          <CharString index="538">
            vlineto
            -85 -62 -185 63 callgsubr
            return
          </CharString>
          <CharString index="539">
            543 rmoveto
            -103 callgsubr
            return
          </CharString>
          <CharString index="540">
            33 134 callsubr
            -62 vhcurveto
            return
          </CharString>
          <CharString index="541">
            436 callsubr
            11 hhcurveto
            return
          </CharString>
          <CharString index="542">
            hlineto
            13 6 -33 callsubr
            72 vlineto
            8 return
          </CharString>
          <CharString index="543">
            668 callgsubr
            -6 3 -5 return
          </CharString>
          <CharString index="544">
            338 callgsubr
            40 -45 return
          </CharString>
          <CharString index="545">
            -7 11 hhcurveto
            7 6 2 3 5 hvcurveto
            return
          </CharString>
          <CharString index="546">
            vlineto
            57 652 callsubr
            return
          </CharString>
          <CharString index="547">
            rmoveto
            118 callgsubr
            return
          </CharString>
          <CharString index="548" raw="1">
            971eca06 97910b  
          </CharString>
          <CharString index="549">
            hlineto
            8 3 -3 -7 hvcurveto
            return
          </CharString>
          <CharString index="550">
            564 callgsubr
            -22 return
          </CharString>
          <CharString index="551" raw="1">
            f7ae0692 8f0b  
          </CharString>
          <CharString index="552">
            57 29 22 50 vhcurveto
            return
          </CharString>
          <CharString index="553">
            6 7 12 hvcurveto
            return
          </CharString>
          <CharString index="554">
            vlineto
            12 -4 6 return
          </CharString>
          <CharString index="555">
            41 12 -15 -40 hvcurveto
            -75 vlineto
            -40 -12 -16 -41 vhcurveto
            -20 hlineto
            -42 -11 16 40 hvcurveto
            75 vlineto
            40 11 15 42 vhcurveto
            return
          </CharString>
          <CharString index="556">
            -7 -4 -5 -7 return
          </CharString>
          <CharString index="557">
            -90 128 vhcurveto
            return
          </CharString>
          <CharString index="558">
            vvcurveto
            -31 12 -27 24 -29 vhcurveto
            -11 9 8 -7 11 hhcurveto
            8 686 callsubr
            return
          </CharString>
          <CharString index="559">
            hlineto
            -40 -17 13 41 39 18 16 41 hvcurveto
            197 205 callgsubr
            92 440 callgsubr
            return
          </CharString>
          <CharString index="560">
            hmoveto
            98 153 callgsubr
            -98 vhcurveto
            return
          </CharString>
          <CharString index="561">
            rmoveto
            380 callgsubr
            return
          </CharString>
          <CharString index="562">
            rmoveto
            -51 -21 695 callgsubr
            21 25 51 vhcurveto
            return
          </CharString>
          <CharString index="563">
            574 callgsubr
            13 return
          </CharString>
          <CharString index="564">
            vlineto
            -52 -32 -21 return
          </CharString>
          <CharString index="565">
            vhcurveto
            51 hlineto
            12 return
          </CharString>
          <CharString index="566">
            -4 hlineto
            -21 -11 -8 -19 -28 vvcurveto
            -39 307 callsubr
            -46 vvcurveto
            return
          </CharString>
          <CharString index="567">
            -41 -40 -78 hvcurveto
            -10 vlineto
            -43 16 -27 36 -13 vhcurveto
            -4 vlineto
            -35 -14 -17 -33 -41 vvcurveto
            -18 vlineto
            -78 50 return
          </CharString>
          <CharString index="568">
            246 callsubr
            140 573 callgsubr
          </CharString>
          <CharString index="569">
            rmoveto
            12 -5 439 callgsubr
            return
          </CharString>
          <CharString index="570">
            708 callsubr
            -14 vhcurveto
            return
          </CharString>
          <CharString index="571">
            hlineto
            53 25 -30 -50 hvcurveto
            return
          </CharString>
          <CharString index="572">
            5 hvcurveto
            27 19 rlineto
            6 return
          </CharString>
          <CharString index="573">
            -6 646 callsubr
            return
          </CharString>
          <CharString index="574">
            347 callsubr
            -62 vhcurveto
            return
          </CharString>
          <CharString index="575">
            hlineto
            14 550 callsubr
            return
          </CharString>
          <CharString index="576">
            4 5 12 hvcurveto
            return
          </CharString>
          <CharString index="577">
            hhcurveto
            319 callgsubr
            -94 -55 -52 -86 -9 hvcurveto
            return
          </CharString>
          <CharString index="578">
            -7 499 callgsubr
            return
          </CharString>
          <CharString index="579">
            102 callgsubr
            -51 vlineto
            -15 return
          </CharString>
          <CharString index="580">
            rmoveto
            -14 7 -5 12 vhcurveto
            53 hlineto
            13 6 -33 callsubr
            return
          </CharString>
          <CharString index="581">
            643 callsubr
            -49 731 callgsubr
            return
          </CharString>
          <CharString index="582">
            -8 -35 hvcurveto
            -19 vlineto
            -9 2 -3 return
          </CharString>
          <CharString index="583">
            rmoveto
            704 callgsubr
            -17 hlineto
            return
          </CharString>
          <CharString index="584">
            671 callsubr
            8 hhcurveto
            return
          </CharString>
          <CharString index="585">
            -55 -26 -39 614 callsubr
            return
          </CharString>
          <CharString index="586">
            729 callsubr
            4 -5 10 hhcurveto
            return
          </CharString>
          <CharString index="587">
            hvcurveto
            40 78 41 -78 rlineto
            -8 return
          </CharString>
          <CharString index="588">
            rlineto
            -3 -4 -2 -3 -4 vvcurveto
            return
          </CharString>
          <CharString index="589">
            -50 -19 18 52 hvcurveto
            return
          </CharString>
          <CharString index="590">
            7 4 5 8 vhcurveto
            return
          </CharString>
          <CharString index="591">
            rmoveto
            7 -5 -6 3 return
          </CharString>
          <CharString index="592">
            4 6 11 hvcurveto
            return
          </CharString>
          <CharString index="593">
            -18 19 35 hvcurveto
            return
          </CharString>
          <CharString index="594">
            hlineto
            -45 -40 -18 -35 -16 hvcurveto
            -4 36 72 callsubr
            return
          </CharString>
          <CharString index="595">
            22 54 hvcurveto
            73 -28 callgsubr
            return
          </CharString>
          <CharString index="596">
            vlineto
            8 4 3 8 vhcurveto
            61 hlineto
            14 6 30 callgsubr
            42 vlineto
            12 -6 6 -14 vhcurveto
            endchar
          </CharString>
          <CharString index="597">
            20 11 36 vhcurveto
            return
          </CharString>
          <CharString index="598">
            hlineto
            -11 -6 -4 return
          </CharString>
          <CharString index="599">
            223 callsubr
            294 339 callgsubr
            return
          </CharString>
          <CharString index="600">
            -6 13 vhcurveto
            49 hlineto
            12 7 82 callgsubr
            22 18 43 45 517 callsubr
            return
          </CharString>
          <CharString index="601">
            733 callgsubr
            -5 -7 -10 8 hvcurveto
            84 708 callgsubr
            9 -4 8 hhcurveto
            48 hlineto
            11 return
          </CharString>
          <CharString index="602">
            -41 -58 callsubr
            34 hlineto
            32 15 -17 -30 hvcurveto
            return
          </CharString>
          <CharString index="603">
            -5 512 callgsubr
            return
          </CharString>
          <CharString index="604">
            604 callgsubr
            -6 4 -11 vhcurveto
            -59 hlineto
            return
          </CharString>
          <CharString index="605" raw="1">
            55231ff8 dd1d0b  
          </CharString>
          <CharString index="606">
            445 callgsubr
            7 vlineto
            32 12 14 37 vhcurveto
            return
          </CharString>
          <CharString index="607">
            rmoveto
            79 39 43 83 hvcurveto
            7 vlineto
            18 return
          </CharString>
          <CharString index="608">
            6 604 callgsubr
            -7 4 return
          </CharString>
          <CharString index="609">
            hlineto
            7 9 2 0 hvcurveto
            return
          </CharString>
          <CharString index="610">
            vlineto
            -82 43 -32 89 vhcurveto
            return
          </CharString>
          <CharString index="611">
            708 callsubr
            -15 vhcurveto
            return
          </CharString>
          <CharString index="612">
            -7 -4 3 8 hvcurveto
            return
          </CharString>
          <CharString index="613">
            97 573 callsubr
            return
          </CharString>
          <CharString index="614">
            vlineto
            8 4 4 return
          </CharString>
          <CharString index="615">
            -27 24 54 hvcurveto
            return
          </CharString>
          <CharString index="616">
            554 callgsubr
            5 6 hvcurveto
            return
          </CharString>
          <CharString index="617">
            rmoveto
            8 callsubr
            155 vlineto
            181 -199 rlineto
            -22 -13 -23 -12 -35 hhcurveto
            return
          </CharString>
          <CharString index="618">
            -6 -5 -12 hvcurveto
            -173 vlineto
            -12 7 435 callgsubr
            return
          </CharString>
          <CharString index="619">
            rmoveto
            100 callsubr
            return
          </CharString>
          <CharString index="620">
            hlineto
            49 21 557 callgsubr
            return
          </CharString>
          <CharString index="621">
            218 callsubr
            6 -7 14 vhcurveto
            106 186 callgsubr
            49 vlineto
            33 -13 return
          </CharString>
          <CharString index="622">
            hvcurveto
            85 602 callsubr
            -12 hhcurveto
            endchar
          </CharString>
          <CharString index="623">
            hvcurveto
            221 vlineto
            return
          </CharString>
          <CharString index="624">
            21 -18 -56 vhcurveto
            return
          </CharString>
          <CharString index="625">
            -15 -7 -31 -19 vhcurveto
            -32 -18 -5 -7 -10 hhcurveto
            -16 -5 9 34 hvcurveto
            20 vlineto
            8 return
          </CharString>
          <CharString index="626">
            -3 13 vhcurveto
            37 hlineto
            54 36 19 47 hvcurveto
            15 vlineto
            51 -29 19 -47 vhcurveto
            4 vlineto
            return
          </CharString>
          <CharString index="627">
            9 -25 36 hhcurveto
            35 53 12 25 14 -5 3 return
          </CharString>
          <CharString index="628">
            30 callgsubr
            511 -77 callsubr
            return
          </CharString>
          <CharString index="629">
            -33 callsubr
            72 vlineto
            8 3 return
          </CharString>
          <CharString index="630">
            12 vlineto
            89 48 40 88 hvcurveto
            return
          </CharString>
          <CharString index="631">
            hlineto
            13 9 652 callgsubr
            return
          </CharString>
          <CharString index="632">
            5 -6 530 callgsubr
            return
          </CharString>
          <CharString index="633">
            52 216 callgsubr
            return
          </CharString>
          <CharString index="634">
            50 21 23 51 vhcurveto
            return
          </CharString>
          <CharString index="635">
            -2 4 -3 5 hvcurveto
            return
          </CharString>
          <CharString index="636">
            12 705 callsubr
            return
          </CharString>
          <CharString index="637">
            vlineto
            12 -6 7 return
          </CharString>
          <CharString index="638">
            6 8 10 6 return
          </CharString>
          <CharString index="639">
            -18 -34 -46 vvcurveto
            return
          </CharString>
          <CharString index="640">
            3 7 5 hvcurveto
            return
          </CharString>
          <CharString index="641">
            hhcurveto
            -25 hlineto
            -44 661 callgsubr
            7 vhcurveto
            return
          </CharString>
          <CharString index="642">
            719 callgsubr
            115 286 callsubr
            return
          </CharString>
          <CharString index="643">
            144 callsubr
            -5 vlineto
            -93 53 -51 100 vhcurveto
            72 hlineto
            return
          </CharString>
          <CharString index="644">
            rlineto
            6 -8 -3 1 -5 hhcurveto
            -6 return
          </CharString>
          <CharString index="645">
            hlineto
            337 callsubr
            return
          </CharString>
          <CharString index="646">
            -4 -12 -6 hvcurveto
            -52 -96 rlineto
            -12 return
          </CharString>
          <CharString index="647">
            27 27 49 vhcurveto
            28 hlineto
            55 30 return
          </CharString>
          <CharString index="648">
            hlineto
            54 30 21 27 14 hvcurveto
            4 return
          </CharString>
          <CharString index="649">
            -4 7 6 6 3 6 3 vhcurveto
            return
          </CharString>
          <CharString index="650">
            hlineto
            646 callgsubr
            return
          </CharString>
          <CharString index="651">
            vlineto
            13 -4 6 -15 vhcurveto
            return
          </CharString>
          <CharString index="652">
            -6 -6 2 8 -1 hvcurveto
            return
          </CharString>
          <CharString index="653">
            hlineto
            483 callgsubr
            return
          </CharString>
          <CharString index="654">
            hlineto
            -8 517 callgsubr
            return
          </CharString>
          <CharString index="655">
            vlineto
            -12 5 -7 12 vhcurveto
            return
          </CharString>
          <CharString index="656">
            vlineto
            12 -6 6 -12 vhcurveto
            return
          </CharString>
          <CharString index="657">
            4 4 12 hvcurveto
            return
          </CharString>
          <CharString index="658">
            vlineto
            7 3 3 return
          </CharString>
          <CharString index="659">
            5 4 6 6 vvcurveto
            7 -2 3 -6 9 693 callgsubr
            return
          </CharString>
          <CharString index="660">
            hlineto
            17 9 4 17 hvcurveto
            34 vlineto
            13 -7 9 -17 vhcurveto
            -43 hlineto
            -37 -19 return
          </CharString>
          <CharString index="661">
            15 575 callgsubr
            9 -3 723 callsubr
            return
          </CharString>
          <CharString index="662">
            -11 callgsubr
            297 hlineto
            7 4 return
          </CharString>
          <CharString index="663">
            -22 -38 -15 hvcurveto
            -4 hlineto
            41 274 callgsubr
            -55 -105 hvcurveto
            return
          </CharString>
          <CharString index="664">
            272 callgsubr
            7 5 return
          </CharString>
          <CharString index="665">
            4 -11 vhcurveto
            -63 hlineto
            -12 -6 -4 -13 hvcurveto
            return
          </CharString>
          <CharString index="666">
            17 33 31 20 -16 -31 vhcurveto
            -55 vlineto
            -40 return
          </CharString>
          <CharString index="667">
            383 callgsubr
            5 -2 return
          </CharString>
          <CharString index="668">
            hlineto
            -54 347 callgsubr
            112 vlineto
            57 return
          </CharString>
          <CharString index="669">
            99 47 50 89 hvcurveto
            return
          </CharString>
          <CharString index="670">
            11 -6 5 -10 vhcurveto
            return
          </CharString>
          <CharString index="671">
            -9 -10 -13 hvcurveto
            return
          </CharString>
          <CharString index="672">
            12 hhcurveto
            38 hlineto
            return
          </CharString>
          <CharString index="673">
            574 rmoveto
            48 hlineto
            10 7 533 callsubr
            62 551 callgsubr
            return
          </CharString>
          <CharString index="674">
            -31 callgsubr
            695 callsubr
            return
          </CharString>
          <CharString index="675">
            -42 hlineto
            -101 -59 -59 -100 hvcurveto
            -34 vlineto
            -102 58 -58 101 vhcurveto
            79 hlineto
            return
          </CharString>
          <CharString index="676">
            hlineto
            -97 64 450 callsubr
            52 hlineto
            56 40 148 callgsubr
            return
          </CharString>
          <CharString index="677">
            -5 623 rmoveto
            -76 callsubr
            return
          </CharString>
          <CharString index="678">
            rmoveto
            -11 5 -6 11 433 callgsubr
            return
          </CharString>
          <CharString index="679">
            299 callgsubr
            -325 287 callgsubr
            endchar
          </CharString>
          <CharString index="680">
            58 57 98 hvcurveto
            return
          </CharString>
          <CharString index="681">
            vlineto
            -13 5 -5 return
          </CharString>
          <CharString index="682">
            rlineto
            5 hlineto
            76 return
          </CharString>
          <CharString index="683">
            37 14 24 33 56 vvcurveto
            42 vlineto
            36 -14 26 -23 12 vhcurveto
            4 return
          </CharString>
          <CharString index="684">
            hhcurveto
            -17 callgsubr
            12 -6 6 -14 vhcurveto
            return
          </CharString>
          <CharString index="685">
            -75 vlineto
            -67 22 -50 48 -25 vhcurveto
            -1 vlineto
            -50 -19 -10 -48 vhcurveto
            return
          </CharString>
          <CharString index="686">
            395 rmoveto
            659 callsubr
            return
          </CharString>
          <CharString index="687">
            -58 callsubr
            388 return
          </CharString>
          <CharString index="688">
            vlineto
            -41 19 -30 39 -9 vhcurveto
            -4 vlineto
            -42 -14 -16 -35 -48 vvcurveto
            return
          </CharString>
          <CharString index="689">
            rmoveto
            660 callgsubr
            423 return
          </CharString>
          <CharString index="690">
            636 callsubr
            38 10 703 callsubr
            return
          </CharString>
          <CharString index="691">
            5 6 -5 10 hhcurveto
            66 hlineto
            10 7 return
          </CharString>
          <CharString index="692">
            hlineto
            10 5 604 callgsubr
            return
          </CharString>
          <CharString index="693">
            18 531 callgsubr
            -14 vhcurveto
            -47 hlineto
            return
          </CharString>
          <CharString index="694">
            -77 616 callsubr
            45 11 vlineto
            90 return
          </CharString>
          <CharString index="695">
            7 -6 12 vhcurveto
            53 hlineto
            13 6 6 return
          </CharString>
          <CharString index="696">
            346 callsubr
            -34 vlineto
            -11 4 -6 return
          </CharString>
          <CharString index="697">
            -50 670 callsubr
            return
          </CharString>
          <CharString index="698">
            -4 -7 vvcurveto
            728 callsubr
            return
          </CharString>
          <CharString index="699">
            507 callgsubr
            -69 -45 return
          </CharString>
          <CharString index="700">
            11 609 callgsubr
            return
          </CharString>
          <CharString index="701">
            hvcurveto
            109 vlineto
            -5 callsubr
            return
          </CharString>
          <CharString index="702">
            15 vhcurveto
            371 hlineto
            15 4 return
          </CharString>
          <CharString index="703">
            -5 5 -12 vhcurveto
            -63 hlineto
            -12 return
          </CharString>
          <CharString index="704">
            vlineto
            449 callsubr
            vhcurveto
            return
          </CharString>
          <CharString index="705">
            hlineto
            -8 683 callgsubr
            return
          </CharString>
          <CharString index="706">
            hlineto
            506 callsubr
            return
          </CharString>
          <CharString index="707">
            -14 vhcurveto
            -47 hlineto
            -11 -7 return
          </CharString>
          <CharString index="708">
            447 callsubr
            -15 vhcurveto
            return
          </CharString>
          <CharString index="709">
            100 rlineto
            10 7 -4 7 return
          </CharString>
          <CharString index="710">
            rmoveto
            -53 -21 -29 -52 vhcurveto
            return
          </CharString>
          <CharString index="711">
            hvcurveto
            -44 vlineto
            -12 6 -6 return
          </CharString>
          <CharString index="712">
            hlineto
            89 50 56 96 hvcurveto
            return
          </CharString>
          <CharString index="713">
            hlineto
            613 callgsubr
            return
          </CharString>
          <CharString index="714">
            vlineto
            -50 731 callgsubr
            return
          </CharString>
          <CharString index="715">
            40 87 hvcurveto
            21 vlineto
            39 return
          </CharString>
          <CharString index="716">
            701 callsubr
            9 return
          </CharString>
          <CharString index="717">
            -50 vhcurveto
            -8 hlineto
            -13 -6 return
          </CharString>
          <CharString index="718">
            -105 -55 -62 -97 hvcurveto
            return
          </CharString>
          <CharString index="719">
            13 469 callsubr
            return
          </CharString>
          <CharString index="720">
            hlineto
            13 9 5 9 return
          </CharString>
          <CharString index="721">
            -74 -1 vhcurveto
            -74 hlineto
            return
          </CharString>
          <CharString index="722">
            5 9 9 hvcurveto
            return
          </CharString>
          <CharString index="723">
            -35 39 67 hvcurveto
            return
          </CharString>
          <CharString index="724">
            -9 539 callsubr
            -5 3 -5 10 hhcurveto
            return
          </CharString>
          <CharString index="725">
            -4 472 callgsubr
            return
          </CharString>
          <CharString index="726">
            vlineto
            -12 4 -7 595 callsubr
            7 12 hvcurveto
            return
          </CharString>
          <CharString index="727">
            92 381 callgsubr
            return
          </CharString>
          <CharString index="728">
            382 callsubr
            482 callsubr
            return
          </CharString>
          <CharString index="729">
            vlineto
            264 callsubr
            return
          </CharString>
          <CharString index="730">
            16 4 20 hhcurveto
            return
          </CharString>
          <CharString index="731">
            hvcurveto
            38 vlineto
            45 return
          </CharString>
          <CharString index="732">
            hlineto
            312 callgsubr
            54 28 29 54 vhcurveto
            return
          </CharString>
          <CharString index="733">
            hlineto
            -14 346 callsubr
            -37 vlineto
            -11 4 -6 14 vhcurveto
            return
          </CharString>
          <CharString index="734">
            hlineto
            11 707 callsubr
            96 vlineto
            12 -6 4 -10 vhcurveto
            return
          </CharString>
          <CharString index="735">
            hlineto
            387 callsubr
            90 hlineto
            56 37 19 34 return
          </CharString>
          <CharString index="736">
            hlineto
            250 -196 rmoveto
            207 196 -207 hlineto
            return
          </CharString>
          <CharString index="737">
            hlineto
            13 6 7 25 callsubr
            return
          </CharString>
          <CharString index="738">
            rmoveto
            -13 -6 18 callgsubr
            -14 6 -5 13 vhcurveto
            return
          </CharString>
          <CharString index="739">
            vlineto
            -16 7 -7 15 vhcurveto
            53 hlineto
            15 7 7 16 hvcurveto
            return
          </CharString>
          <CharString index="740">
            9 -6 -27 hvcurveto
            -33 vlineto
            -26 -9 -7 -25 vhcurveto
            -15 hlineto
            return
          </CharString>
          <CharString index="741">
            hlineto
            37 21 17 38 hvcurveto
            60 vlineto
            36 -21 16 -37 vhcurveto
            return
          </CharString>
          <CharString index="742">
            vlineto
            15 -6 5 -14 vhcurveto
            -45 hlineto
            -14 -5 -5 -15 hvcurveto
            return
          </CharString>
          <CharString index="743">
            -19 -17 11 -30 24 hhcurveto
            20 hlineto
            return
          </CharString>
          <CharString index="744">
            hvcurveto
            40 -11 callsubr
            return
          </CharString>
          <CharString index="745">
            170 rmoveto
            277 callsubr
            return
          </CharString>
          <CharString index="746">
            -8 -15 hvcurveto
            -6 vlineto
            -103 57 -32 return
          </CharString>
          <CharString index="747">
            -8 -15 hvcurveto
            -18 vlineto
            -56 -29 -20 return
          </CharString>
          <CharString index="748">
            612 rmoveto
            -38 20 -17 37 vhcurveto
            return
          </CharString>
          <CharString index="749">
            hlineto
            -17 callsubr
            108 return
          </CharString>
          <CharString index="750">
            hlineto
            50 277 callgsubr
            return
          </CharString>
          <CharString index="751">
            -100 61 -59 99 vhcurveto
            return
          </CharString>
          <CharString index="752">
            -57 -24 29 53 hvcurveto
            return
          </CharString>
          <CharString index="753">
            14 vhcurveto
            38 hlineto
            45 return
          </CharString>
          <CharString index="754">
            -14 -36 vhcurveto
            -42 hlineto
            return
          </CharString>
          <CharString index="755">
            73 vlineto
            8 4 3 return
          </CharString>
          <CharString index="756">
            -6 728 callgsubr
            return
          </CharString>
          <CharString index="757">
            vhcurveto
            -11 14 -6 9 return
          </CharString>
          <CharString index="758">
            -97 -55 -53 -98 hvcurveto
            return
          </CharString>
          <CharString index="759">
            30 22 49 vhcurveto
            return
          </CharString>
          <CharString index="760">
            vlineto
            11 -5 6 return
          </CharString>
          <CharString index="761">
            -7 -5 -14 hvcurveto
            return
          </CharString>
          <CharString index="762">
            -7 3 -3 7 vhcurveto
            29 hlineto
            6 3 3 7 hvcurveto
            return
          </CharString>
          <CharString index="763">
            138 465 callgsubr
            -566 vlineto
            -14 return
          </CharString>
          <CharString index="764">
            rlineto
            -4 -4 -1 -4 -4 322 callgsubr
            return
          </CharString>
          <CharString index="765">
            360 callgsubr
            -165 hlineto
            -69 -44 -43 return
          </CharString>
          <CharString index="766">
            -8 -4 -4 592 callsubr
            -44 -67 return
          </CharString>
          <CharString index="767">
            hlineto
            689 callgsubr
            return
          </CharString>
          <CharString index="768">
            703 callsubr
            -20 -10 -7 -38 vhcurveto
            -28 hlineto
            return
          </CharString>
          <CharString index="769">
            -7 12 vhcurveto
            63 468 callgsubr
            endchar
          </CharString>
          <CharString index="770">
            vlineto
            -100 57 -56 100 vhcurveto
            return
          </CharString>
          <CharString index="771">
            hlineto
            13 5 4 12 hvcurveto
            return
          </CharString>
          <CharString index="772">
            vlineto
            14 -4 6 -15 vhcurveto
            return
          </CharString>
          <CharString index="773">
            hlineto
            -98 -61 -54 -104 hvcurveto
            return
          </CharString>
          <CharString index="774">
            vlineto
            -8 -5 -4 -7 vhcurveto
            return
          </CharString>
          <CharString index="775">
            hlineto
            -13 -4 -6 -12 hvcurveto
            return
          </CharString>
          <CharString index="776">
            hlineto
            -98 707 callgsubr
            return
          </CharString>
          <CharString index="777">
            hlineto
            -13 -6 -5 -14 hvcurveto
            return
          </CharString>
          <CharString index="778">
            -78 rlineto
            -8 3 5 -2 return
          </CharString>
          <CharString index="779">
            12 649 callgsubr
            return
          </CharString>
          <CharString index="780">
            7 49 hvcurveto
            6 vlineto
            15 return
          </CharString>
          <CharString index="781">
            rmoveto
            -11 vlineto
            -71 35 -35 return
          </CharString>
          <CharString index="782">
            rmoveto
            -7 -4 4 8 hvcurveto
            return
          </CharString>
          <CharString index="783">
            vlineto
            699 callsubr
            return
          </CharString>
          <CharString index="784">
            hvcurveto
            -43 vlineto
            -13 5 -6 return
          </CharString>
          <CharString index="785" raw="1">
            077f9185 981e0b  
          </CharString>
          <CharString index="786" raw="1">
            961eca06 97910b  
          </CharString>
          <CharString index="787">
            -4 7 -11 hhcurveto
            endchar
          </CharString>
          <CharString index="788">
            -5 5 -11 hhcurveto
            return
          </CharString>
          <CharString index="789">
            -56 vlineto
            -8 -4 return
          </CharString>
          <CharString index="790">
            vlineto
            99 -58 56 return
          </CharString>
          <CharString index="791">
            -34 20 62 hvcurveto
            10 hlineto
            80 64 31 99 89 return
          </CharString>
          <CharString index="792">
            3 -4 2 -4 rrcurveto
            -8 7 8 -5 12 hhcurveto
            return
          </CharString>
          <CharString index="793">
            5 345 callsubr
            5 4 return
          </CharString>
          <CharString index="794">
            -35 -35 -16 -17 -39 hvcurveto
            -80 hlineto
            -14 -5 -7 return
          </CharString>
          <CharString index="795">
            537 callsubr
            -6 -4 -6 return
          </CharString>
          <CharString index="796">
            rrcurveto
            -8 6 9 -5 12 419 callsubr
            6 return
          </CharString>
          <CharString index="797">
            -84 hlineto
            -14 6 -5 13 vhcurveto
            return
          </CharString>
          <CharString index="798">
            -14 410 callsubr
            return
          </CharString>
          <CharString index="799">
            -33 callsubr
            84 4 vlineto
            -21 return
          </CharString>
          <CharString index="800">
            rlineto
            -5 4 5 -7 10 hhcurveto
            return
          </CharString>
          <CharString index="801">
            -80 603 callsubr
            return
          </CharString>
          <CharString index="802">
            -48 -27 -27 -49 vhcurveto
            -28 hlineto
            return
          </CharString>
          <CharString index="803">
            486 callsubr
            43 vlineto
            38 return
          </CharString>
          <CharString index="804">
            34 -14 hvcurveto
            -4 vlineto
            -33 -14 return
          </CharString>
          <CharString index="805">
            vlineto
            10 1 9 2 9 vhcurveto
            return
          </CharString>
          <CharString index="806">
            -98 58 -57 98 vhcurveto
            return
          </CharString>
          <CharString index="807">
            -98 60 -58 97 vhcurveto
            return
          </CharString>
          <CharString index="808">
            -2 8 hhcurveto
            46 hlineto
            return
          </CharString>
          <CharString index="809">
            -54 -28 -29 -54 vhcurveto
            return
          </CharString>
          <CharString index="810">
            -5 -22 hvcurveto
            -2 vlineto
            return
          </CharString>
          <CharString index="811">
            12 712 callsubr
            return
          </CharString>
          <CharString index="812">
            -6 6 -11 vhcurveto
            return
          </CharString>
          <CharString index="813">
            vhcurveto
            114 hlineto
            return
          </CharString>
          <CharString index="814">
            5 5 12 hvcurveto
            return
          </CharString>
          <CharString index="815">
            vlineto
            13 -5 6 return
          </CharString>
          <CharString index="816">
            -5 3 -5 hvcurveto
            return
          </CharString>
          <CharString index="817">
            -20 10 vhcurveto
            5 return
          </CharString>
          <CharString index="818">
            vhcurveto
            -164 hlineto
            return
          </CharString>
          <CharString index="819">
            -5 5 -13 vhcurveto
            return
          </CharString>
          <CharString index="820">
            hhcurveto
            34 54 12 25 14 -5 3 -19 hvcurveto
            return
          </CharString>
          <CharString index="821">
            vlineto
            45 vlineto
            8 3 4 8 vhcurveto
            170 return
          </CharString>
          <CharString index="822">
            81 callsubr
            -100 60 -59 return
          </CharString>
          <CharString index="823">
            4 -11 vhcurveto
            -59 665 callgsubr
            return
          </CharString>
          <CharString index="824">
            10 vhcurveto
            64 524 callsubr
            return
          </CharString>
          <CharString index="825">
            hvcurveto
            -52 479 callsubr
            return
          </CharString>
          <CharString index="826">
            -1 3 -5 -6 vvcurveto
            -221 vlineto
            -69 41 return
          </CharString>
          <CharString index="827">
            hhcurveto
            -193 hmoveto
            -12 -7 -3 -13 -7 hvcurveto
            return
          </CharString>
          <CharString index="828">
            vhcurveto
            62 hlineto
            14 29 callgsubr
            43 vlineto
            return
          </CharString>
          <CharString index="829">
            vlineto
            -58 -34 -57 -82 vhcurveto
            -79 hlineto
            -74 -28 return
          </CharString>
          <CharString index="830">
            3 -8 vhcurveto
            -38 hlineto
            -8 733 callsubr
            return
          </CharString>
          <CharString index="831">
            -5 699 callgsubr
            5 -7 return
          </CharString>
          <CharString index="832">
            -14 hvcurveto
            -201 vlineto
            -14 7 -5 13 vhcurveto
            return
          </CharString>
          <CharString index="833">
            2 6 6 -4 hvcurveto
            endchar
          </CharString>
          <CharString index="834">
            59 -112 vhcurveto
            endchar
          </CharString>
          <CharString index="835">
            -126 vlineto
            -44 return
          </CharString>
          <CharString index="836">
            -96 rlineto
            -12 -6 return
          </CharString>
          <CharString index="837">
            6 -4 12 vhcurveto
            return
          </CharString>
          <CharString index="838">
            -7 9 19 vvcurveto
            return
          </CharString>
          <CharString index="839">
            687 rmoveto
            12 return
          </CharString>
          <CharString index="840">
            -4 -3 -9 hvcurveto
            return
          </CharString>
        <CharString name=".notdef">
          97 120 hmoveto
          360 582 -360 hlineto
          50 -46 rmoveto
          260 -490 -260 hlineto
          endchar
        </CharString>
        <CharString name="A">
          45 -66 callgsubr
          endchar
        </CharString>
        <CharString name="AE">
          80 callgsubr
          endchar
        </CharString>
        <CharString name="AEacute">
          80 callgsubr
          470 836 rmoveto
          -10 -9 -4 -12 -5 281 callsubr
          84 602 callsubr
          -11 hhcurveto
          endchar
        </CharString>
        <CharString name="Aacute">
          44 -66 callgsubr
          282 836 rmoveto
          -10 617 callsubr
          49 hlineto
          8 8 4 8 6 515 callsubr
        </CharString>
        <CharString name="Abreve">
          44 -66 callgsubr
          128 824 rmoveto
          -11 vlineto
          -71 36 -35 61 269 callsubr
          -32 vhcurveto
          -6 hlineto
          -32 -13 15 310 callgsubr
          -7 -5 -3 -9 hvcurveto
          endchar
        </CharString>
        <CharString name="Acircumflex">
          44 -66 callgsubr
          283 826 rmoveto
          7 -5 -5 147 callgsubr
          endchar
        </CharString>
        <CharString name="Adieresis">
          44 -66 callgsubr
          282 724 104 callgsubr
        </CharString>
        <CharString name="Agrave">
          44 -66 callgsubr
          215 820 rmoveto
          12 -6 -8 4 650 callgsubr
          -5 -7 -10 8 334 callgsubr
          11 3 680 callgsubr
        </CharString>
        <CharString name="Amacron">
          44 -66 callgsubr
          337 740 251 callgsubr
        </CharString>
        <CharString name="Aogonek">
          44 184 227 rmoveto
          88 320 rlineto
          4 hlineto
          89 -320 rlineto
          -17 399 rmoveto
          13 -3 -8 4 -13 hhcurveto
          -100 hlineto
          -13 -7 -4 -13 -4 hvcurveto
          -174 -609 rlineto
          -12 -3 2 -5 11 hhcurveto
          72 hlineto
          11 4 4 13 3 hvcurveto
          38 130 rlineto
          220 hlineto
          37 -128 -57 -86 rlineto
          -24 -16 520 callsubr
          -19 hvcurveto
          -40 hlineto
          42 62 rlineto
          52 hlineto
          12 2 5 12 -3 hvcurveto
          endchar
        </CharString>
        <CharString name="Aring">
          44 -66 callgsubr
          229 740 rmoveto
          -22 -10 316 callsubr
          -21 -22 -38 hvcurveto
          -51 vlineto
          -40 21 -22 39 vhcurveto
          endchar
        </CharString>
        <CharString name="Atilde">
          44 -66 callgsubr
          252 746 rmoveto
          26 16 3 7 12 hhcurveto
          17 4 -8 -35 hvcurveto
          -19 vlineto
          -9 3 -3 7 687 callgsubr
          -14 32 -53 -25 -16 -7 -31 -18 vhcurveto
          -32 -18 -5 -7 -11 hhcurveto
          -15 -5 9 34 hvcurveto
          20 vlineto
          8 -3 2 -7 vhcurveto
          -30 hlineto
          -7 -3 675 callgsubr
          15 -32 53 24 17 7 37 20 vhcurveto
          endchar
        </CharString>
        <CharString name="B">
          49 73 596 callgsubr
          246 hlineto
          97 58 55 98 hvcurveto
          64 vlineto
          69 -42 37 -48 6 vhcurveto
          49 15 33 36 61 vvcurveto
          49 vlineto
          98 -58 55 -98 vhcurveto
          -237 642 callsubr
          -257 rmoveto
          506 callgsubr
          171 246 callsubr
          132 hlineto
          49 25 -22 -50 hvcurveto
          -46 vlineto
          -50 -26 -23 -50 vhcurveto
          -130 -286 rmoveto
          506 callgsubr
          186 246 callsubr
          136 hlineto
          54 25 -23 -49 hvcurveto
          -62 vlineto
          -50 -25 -22 -50 vhcurveto
          endchar
        </CharString>
        <CharString name="C">
          37 334 hmoveto
          1 callgsubr
        </CharString>
        <CharString name="CR">
          -503 endchar
        </CharString>
        <CharString name="Cacute">
          37 308 213 callgsubr
          6 724 callgsubr
          -52 -836 rmoveto
          1 callgsubr
        </CharString>
        <CharString name="Ccaron">
          37 302 707 rmoveto
          11 354 callsubr
          -4 hvcurveto
          -40 -78 -40 78 rlineto
          8 -3 496 callsubr
          80 -707 rmoveto
          1 callgsubr
        </CharString>
        <CharString name="Ccedilla">
          37 471 422 rmoveto
          12 6 6 12 hvcurveto
          48 676 callgsubr
          -116 hlineto
          -98 -57 698 callgsubr
          57 -57 98 vhcurveto
          44 hlineto
          -40 -46 rlineto
          -20 -18 11 -29 24 hhcurveto
          21 hlineto
          37 11 -6 -22 hvcurveto
          -3 vlineto
          -19 -11 -6 -37 vhcurveto
          -29 hlineto
          -12 -3 -4 -13 hvcurveto
          -16 vlineto
          -11 3 -5 12 vhcurveto
          38 hlineto
          54 36 20 47 hvcurveto
          16 vlineto
          51 -29 18 -47 vhcurveto
          4 vlineto
          42 44 rlineto
          9 599 callsubr
          48 549 callsubr
          -63 hlineto
          -11 -6 -6 -12 hvcurveto
          -44 287 callgsubr
          -87 hlineto
          -49 -23 695 callgsubr
          23 25 49 vhcurveto
          87 hlineto
          50 22 -25 -49 604 callsubr
          11 vhcurveto
          endchar
        </CharString>
        <CharString name="Cdotaccent">
          37 227 727 431 callgsubr
          107 -822 rmoveto
          1 callgsubr
        </CharString>
        <CharString name="D">
          209 callgsubr
          endchar
        </CharString>
        <CharString name="Dcaron">
          209 callgsubr
          -71 622 rmoveto
          48 408 callgsubr
          -1 6 -9 hhcurveto
          -46 hlineto
          -8 -4 -2 -8 -3 527 callgsubr
          -4 -4 2 -8 hhcurveto
          -45 hlineto
          -9 -3 -6 -6 4 hvcurveto
          64 681 callgsubr
          5 -3 11 hhcurveto
          endchar
        </CharString>
        <CharString name="Dcroat">
          43 346 453 callsubr
          -247 362 callsubr
          -217 vlineto
          -8 580 callgsubr
          -4 14 vhcurveto
          32 hlineto
          8 2 -3 -7 hvcurveto
          -298 225 callgsubr
          92 85 rmoveto
          505 callsubr
          219 246 callsubr
          103 hlineto
          13 550 callsubr
          40 vlineto
          12 -5 5 -12 vhcurveto
          -103 hlineto
          505 callsubr
          139 461 callsubr
        </CharString>
        <CharString name="E">
          -23 -75 callsubr
          endchar
        </CharString>
        <CharString name="Eacute">
          -23 -75 callsubr
          193 836 rmoveto
          -10 -9 -4 -12 -6 hvcurveto
          -51 -96 rlineto
          -12 -6 3 330 callsubr
        </CharString>
        <CharString name="Ebreve">
          -23 -75 callsubr
          48 824 232 callgsubr
        </CharString>
        <CharString name="Ecaron">
          -23 -75 callsubr
          140 707 228 callsubr
          -3 -4 512 callgsubr
          endchar
        </CharString>
        <CharString name="Ecircumflex">
          -23 -75 callsubr
          204 826 32 callgsubr
          endchar
        </CharString>
        <CharString name="Edieresis">
          -23 -75 callsubr
          203 724 231 callsubr
        </CharString>
        <CharString name="Edotaccent">
          -16 -75 callsubr
          111 727 rmoveto
          -12 5 -5 11 vhcurveto
          66 627 callsubr
          -66 248 callgsubr
          endchar
        </CharString>
        <CharString name="Egrave">
          -23 -75 callsubr
          142 820 140 callgsubr
        </CharString>
        <CharString name="Emacron">
          -23 -75 callsubr
          259 740 rmoveto
          612 callsubr
          35 216 callgsubr
          -200 hlineto
          -12 346 callsubr
          -35 vlineto
          -12 4 -5 12 vhcurveto
          endchar
        </CharString>
        <CharString name="Eng">
          59 360 -160 rmoveto
          97 59 58 97 hvcurveto
          631 54 callgsubr
          -429 -4 vlineto
          -240 435 rlineto
          2 -1 -4 9 -16 hhcurveto
          -58 362 callsubr
          -609 107 callsubr
          429 4 vlineto
          47 -78 144 -273 46 -79 rrcurveto
          -4 vlineto
          -63 -23 -24 -62 vhcurveto
          -25 307 callgsubr
          endchar
        </CharString>
        <CharString name="Eogonek">
          -23 410 558 rmoveto
          12 469 callsubr
          51 490 callgsubr
          -12 vhcurveto
          -320 124 callgsubr
          225 hlineto
          -45 -67 rlineto
          -24 -17 520 callsubr
          -18 hvcurveto
          -41 hlineto
          43 62 rlineto
          45 hlineto
          12 485 callsubr
          51 vlineto
          12 -4 5 -12 vhcurveto
          -228 hlineto
          -8 -4 3 8 hvcurveto
          178 257 callsubr
          193 543 callsubr
          51 vlineto
          704 callsubr
          -193 598 callsubr
          169 257 callsubr
          endchar
        </CharString>
        <CharString name="Eth">
          43 346 453 callsubr
          -247 362 callsubr
          -256 vlineto
          -7 580 callgsubr
          -5 14 vhcurveto
          32 hlineto
          8 2 -3 -7 hvcurveto
          -259 225 callgsubr
          92 85 rmoveto
          505 callsubr
          180 246 callsubr
          103 hlineto
          612 callsubr
          40 vlineto
          12 -5 5 -12 vhcurveto
          -103 hlineto
          506 callgsubr
          178 461 callsubr
        </CharString>
        <CharString name="Euro">
          35 318 hmoveto
          97 59 55 98 hvcurveto
          23 54 callgsubr
          -21 vlineto
          -50 -23 -22 -50 vhcurveto
          -35 hlineto
          -51 -24 22 50 hvcurveto
          66 117 vlineto
          15 4 7 12 hvcurveto
          31 544 callsubr
          -117 58 117 hlineto
          15 4 6 13 hvcurveto
          30 544 callsubr
          -117 72 hlineto
          50 24 22 51 vhcurveto
          35 hlineto
          50 23 -22 -50 hvcurveto
          -21 107 callsubr
          23 vlineto
          98 -59 55 -97 vhcurveto
          -65 hlineto
          -97 -59 -55 -98 hvcurveto
          -74 -50 vlineto
          614 callgsubr
          -30 vlineto
          -13 4 -6 15 vhcurveto
          50 -58 -50 hlineto
          614 callgsubr
          -31 vlineto
          -12 4 -7 15 vhcurveto
          50 -68 hlineto
          -98 59 -55 97 vhcurveto
          endchar
        </CharString>
        <CharString name="F">
          -49 153 hmoveto
          187 callsubr
          236 257 callsubr
          193 hlineto
          13 5 6 12 hvcurveto
          50 vlineto
          704 callsubr
          -193 hlineto
          -8 -4 3 8 hvcurveto
          189 257 callsubr
          222 hlineto
          612 callsubr
          51 216 callgsubr
          -314 124 callgsubr
          endchar
        </CharString>
        <CharString name="G">
          -38 callgsubr
          endchar
        </CharString>
        <CharString name="Gbreve">
          -38 callgsubr
          -56 824 rmoveto
          -11 vlineto
          -71 36 -35 61 135 callsubr
          endchar
        </CharString>
        <CharString name="Gcircumflex">
          -38 callgsubr
          101 826 129 callgsubr
          endchar
        </CharString>
        <CharString name="Gdotaccent">
          -38 callgsubr
          4 727 rmoveto
          -12 5 -5 12 vhcurveto
          65 627 callsubr
          -65 665 callgsubr
          endchar
        </CharString>
        <CharString name="H">
          71 153 hmoveto
          187 callsubr
          253 257 callsubr
          211 hlineto
          7 3 -3 -7 hvcurveto
          -253 107 callsubr
          609 54 callgsubr
          -250 vlineto
          -7 -3 -3 -7 vhcurveto
          -211 598 callsubr
          250 vlineto
          44 callgsubr
          endchar
        </CharString>
        <CharString name="Hbar">
          74 197 354 rmoveto
          -7 -3 3 8 hvcurveto
          73 vlineto
          8 3 3 7 vhcurveto
          211 hlineto
          7 4 -4 -7 hvcurveto
          -73 vlineto
          -8 -3 -3 -8 vhcurveto
          -239 -354 rmoveto
          11 7 4 13 hvcurveto
          241 vlineto
          8 2 3 8 vhcurveto
          211 hlineto
          8 3 -3 -8 hvcurveto
          -241 vlineto
          407 callsubr
          421 vlineto
          8 4 3 7 vhcurveto
          38 hlineto
          13 550 callsubr
          40 671 callgsubr
          -38 hlineto
          505 callsubr
          93 vlineto
          13 -6 4 -12 vhcurveto
          -63 362 callsubr
          -95 vlineto
          -5 -2 -4 -8 vhcurveto
          -212 hlineto
          -8 -2 3 8 hvcurveto
          93 vlineto
          13 -7 558 callsubr
          -93 vlineto
          -8 -3 -3 -7 vhcurveto
          -38 721 callgsubr
          -4 14 vhcurveto
          38 hlineto
          7 3 -3 -8 hvcurveto
          -421 469 callgsubr
          endchar
        </CharString>
        <CharString name="I">
          -250 21 callsubr
          endchar
        </CharString>
        <CharString name="IJ">
          238 178 626 rmoveto
          62 callgsubr
          -609 107 callsubr
          415 626 723 callgsubr
          -22 -25 -50 vhcurveto
          -71 hlineto
          254 callgsubr
          86 vlineto
          12 -6 5 -11 vhcurveto
          -64 hlineto
          -11 -6 -5 -12 hvcurveto
          -90 676 callsubr
          100 599 callsubr
          472 vlineto
          12 -6 4 -11 vhcurveto
          endchar
        </CharString>
        <CharString name="Iacute">
          -250 21 callsubr
          -4 819 rmoveto
          -11 -8 -4 -12 -7 hvcurveto
          -51 729 callsubr
          603 callgsubr
          8 9 4 8 6 724 callgsubr
          endchar
        </CharString>
        <CharString name="Ibreve">
          -250 21 callsubr
          -158 807 674 callsubr
          62 135 callsubr
          endchar
        </CharString>
        <CharString name="Icircumflex">
          -251 21 callsubr
          -4 809 484 callsubr
          -10 hhcurveto
          -48 hlineto
          -11 214 callsubr
          3 -6 9 hhcurveto
          44 hlineto
          9 4 559 callgsubr
          4 4 -2 7 hhcurveto
          47 337 callgsubr
          endchar
        </CharString>
        <CharString name="Idieresis">
          -251 21 callsubr
          -5 707 230 callsubr
        </CharString>
        <CharString name="Idotaccent">
          -250 78 714 rmoveto
          211 callgsubr
          -65 248 callgsubr
          97 -178 rmoveto
          44 callgsubr
          63 hlineto
          187 callsubr
          endchar
        </CharString>
        <CharString name="Igrave">
          -250 21 callsubr
          -68 803 140 callgsubr
        </CharString>
        <CharString name="Imacron">
          -251 21 callsubr
          51 723 251 callgsubr
        </CharString>
        <CharString name="Iogonek">
          -250 158 hmoveto
          12 5 4 13 hvcurveto
          609 vlineto
          44 callgsubr
          6 hlineto
          -45 -67 rlineto
          -24 -16 8 -25 37 713 callsubr
          -41 hlineto
          44 62 rlineto
          endchar
        </CharString>
        <CharString name="Itilde">
          -251 21 callsubr
          -34 729 rmoveto
          26 15 4 7 12 hhcurveto
          16 4 475 callsubr
          8 vhcurveto
          30 hlineto
          7 3 3 9 624 callsubr
          -15 32 -52 -27 -14 -7 -31 640 callgsubr
          -17 -4 9 34 hvcurveto
          20 vlineto
          8 -2 2 -8 vhcurveto
          -30 567 callgsubr
          20 vhcurveto
          endchar
        </CharString>
        <CharString name="J">
          10 365 643 231 callgsubr
        </CharString>
        <CharString name="Jcircumflex">
          -6 440 826 32 callgsubr
          -138 -76 231 callgsubr
        </CharString>
        <CharString name="K">
          146 callgsubr
          endchar
        </CharString>
        <CharString name="L">
          -53 414 hmoveto
          390 callgsubr
          52 vlineto
          11 -4 7 -13 vhcurveto
          -232 598 callsubr
          529 vlineto
          44 callgsubr
          endchar
        </CharString>
        <CharString name="Lacute">
          -53 414 hmoveto
          390 callgsubr
          52 vlineto
          11 -4 7 -13 vhcurveto
          -232 598 callsubr
          529 vlineto
          44 callgsubr
          77 213 callgsubr
          5 516 callgsubr
        </CharString>
        <CharString name="Lcaron">
          -53 414 hmoveto
          390 callgsubr
          52 vlineto
          11 -4 7 -13 vhcurveto
          -232 598 callsubr
          529 vlineto
          44 callgsubr
          292 627 rmoveto
          12 -6 4 -10 272 callgsubr
          6 6 4 5 3 vhcurveto
          43 98 rlineto
          10 24 8 18 29 vvcurveto
          endchar
        </CharString>
        <CharString name="Ldot">
          -4 384 371 rmoveto
          12 -6 4 -10 vhcurveto
          -68 665 callgsubr
          -102 379 callsubr
          36 -267 rmoveto
          390 callgsubr
          52 vlineto
          11 -4 7 -13 vhcurveto
          -233 547 callsubr
          529 54 callgsubr
          -609 427 callsubr
        </CharString>
        <CharString name="Lslash">
          9 440 hmoveto
          12 485 callsubr
          52 vlineto
          11 -4 7 -12 vhcurveto
          -233 547 callsubr
          276 vlineto
          89 50 rlineto
          11 7 6 7 12 vvcurveto
          52 vlineto
          10 -7 4 -10 -4 vhcurveto
          -89 -50 rlineto
          165 54 callgsubr
          -222 vlineto
          -67 -37 rlineto
          -12 -7 -5 -8 -10 vvcurveto
          -51 vlineto
          -10 7 -5 10 5 vhcurveto
          67 38 rlineto
          -302 427 callsubr
        </CharString>
        <CharString name="M">
          212 360 246 rmoveto
          -5 hlineto
          -137 386 rlineto
          7 -3 -4 4 -9 hhcurveto
          -112 hlineto
          -10 -7 -4 -13 hvcurveto
          -609 vlineto
          -14 7 -3 10 vhcurveto
          61 hlineto
          14 3 4 13 hvcurveto
          506 4 vlineto
          133 -367 rlineto
          -11 4 5 -5 12 hhcurveto
          64 hlineto
          12 6 6 10 4 hvcurveto
          130 366 rlineto
          4 -505 hlineto
          188 callgsubr
          62 249 callgsubr
          609 vlineto
          355 callsubr
          -112 hlineto
          -10 -4 -4 -7 -1 hvcurveto
          endchar
        </CharString>
        <CharString name="Mu">
          47 175 18 rmoveto
          -22 18 49 4 29 hhcurveto
          153 callsubr
          -36 hlineto
          -13 6 -4 11 2 callsubr
          -63 362 callsubr
          -323 vlineto
          289 callgsubr
          -49 414 callsubr
          334 vlineto
          13 -6 4 -12 vhcurveto
          -63 124 callgsubr
          63 456 callsubr
          hvcurveto
          endchar
        </CharString>
        <CharString name="N">
          16 callgsubr
          endchar
        </CharString>
        <CharString name="NULL">
          -503 endchar
        </CharString>
        <CharString name="Nacute">
          16 callgsubr
          246 836 rmoveto
          -11 617 callsubr
          49 hlineto
          8 9 4 8 5 515 callsubr
        </CharString>
        <CharString name="Ncaron">
          80 274 707 rmoveto
          48 hlineto
          10 251 callsubr
          -4 2 -9 hhcurveto
          -45 hlineto
          -8 -3 237 callsubr
          11 hhcurveto
          -122 -707 rmoveto
          20 callsubr
          endchar
        </CharString>
        <CharString name="Ntilde">
          16 callgsubr
          216 746 rmoveto
          26 16 3 7 12 hhcurveto
          16 5 475 callsubr
          8 vhcurveto
          29 hlineto
          7 3 3 9 624 callsubr
          -14 32 -53 -26 -15 -7 -31 -18 vhcurveto
          -32 -18 -5 -7 -11 hhcurveto
          -16 -4 9 34 hvcurveto
          20 vlineto
          8 -3 2 -8 vhcurveto
          -29 567 callgsubr
          19 vhcurveto
          endchar
        </CharString>
        <CharString name="O">
          -50 callsubr
          endchar
        </CharString>
        <CharString name="OE">
          276 239 85 455 callsubr
          118 hlineto
          8 4 -3 -7 hvcurveto
          -452 vlineto
          -8 -4 -3 -8 vhcurveto
          -289 70 rmoveto
          699 callsubr
          475 hlineto
          12 5 6 11 hvcurveto
          51 vlineto
          12 -5 5 -12 vhcurveto
          -223 hlineto
          -7 -3 3 8 hvcurveto
          178 551 callsubr
          7 vhcurveto
          189 545 callgsubr
          51 671 callgsubr
          -189 hlineto
          -7 517 callgsubr
          169 551 callsubr
          7 vhcurveto
          223 hlineto
          12 707 callsubr
          51 320 callsubr
          -475 669 callsubr
          endchar
        </CharString>
        <CharString name="Oacute">
          -50 callsubr
          -7 751 rmoveto
          -11 -9 -4 -12 -5 281 callsubr
          84 602 callsubr
          -11 hhcurveto
          endchar
        </CharString>
        <CharString name="Obreve">
          -50 callsubr
          -152 739 674 callsubr
          62 269 callsubr
          -33 vhcurveto
          -6 hlineto
          -31 -13 15 253 callgsubr
          endchar
        </CharString>
        <CharString name="Ocircumflex">
          -50 callsubr
          5 741 123 callsubr
        </CharString>
        <CharString name="Odieresis">
          -50 callsubr
          1 639 103 callgsubr
        </CharString>
        <CharString name="Ograve">
          -50 callsubr
          -62 735 140 callgsubr
        </CharString>
        <CharString name="Ohungarumlaut">
          -50 callsubr
          74 751 rmoveto
          -11 -8 379 callgsubr
          31 hlineto
          9 7 4 8 7 hvcurveto
          74 100 rlineto
          12 8 681 callsubr
          -194 hmoveto
          -10 -8 -3 -13 -7 hvcurveto
          -51 479 callsubr
          32 hlineto
          9 7 4 8 6 hvcurveto
          75 100 rlineto
          12 7 681 callsubr
          endchar
        </CharString>
        <CharString name="Omacron">
          -50 callsubr
          57 655 rmoveto
          612 callsubr
          35 216 callgsubr
          -200 hlineto
          -12 -5 -6 -11 hvcurveto
          -35 vlineto
          -12 5 -5 12 vhcurveto
          endchar
        </CharString>
        <CharString name="Oslash">
          69 405 159 82 callsubr
        </CharString>
        <CharString name="Oslashacute">
          69 300 707 rmoveto
          9 8 4 8 7 hvcurveto
          84 425 callsubr
          -79 hlineto
          -11 -8 -4 -12 668 callgsubr
          -7 4 -5 11 hhcurveto
          152 -548 82 callsubr
        </CharString>
        <CharString name="Otilde">
          -50 callsubr
          -29 661 rmoveto
          26 16 3 7 13 hhcurveto
          15 5 475 callsubr
          8 687 callgsubr
          -15 32 -52 -26 -15 -7 -31 -17 vhcurveto
          -32 -19 -5 -7 -11 hhcurveto
          -16 -4 9 34 hvcurveto
          20 vlineto
          8 -3 2 -7 vhcurveto
          -30 hlineto
          -7 -3 675 callgsubr
          15 -32 52 25 18 7 37 19 vhcurveto
          endchar
        </CharString>
        <CharString name="P">
          25 181 315 rmoveto
          506 callgsubr
          223 246 callsubr
          133 hlineto
          50 21 -25 -49 hvcurveto
          -95 vlineto
          -50 -21 -24 -50 vhcurveto
          -161 -315 rmoveto
          187 callsubr
          202 257 callsubr
          146 599 callsubr
          104 676 callgsubr
          -238 124 callgsubr
          endchar
        </CharString>
        <CharString name="Pi">
          138 220 338 callsubr
          529 257 callgsubr
          146 hlineto
          7 3 -3 -7 hvcurveto
          -529 469 callgsubr
          63 hlineto
          187 callsubr
          529 246 callsubr
          77 hlineto
          13 4 7 11 hvcurveto
          526 callsubr
          -538 hlineto
          -13 -5 -6 -11 hvcurveto
          -52 vlineto
          -11 5 -7 13 vhcurveto
          76 hlineto
          6 5 -2 -6 hvcurveto
          -531 427 callsubr
        </CharString>
        <CharString name="Q">
          61 426 -133 rmoveto
          11 8 8 13 -7 hvcurveto
          -67 115 rlineto
          78 10 46 55 87 vvcurveto
          333 vlineto
          99 -57 56 -98 vhcurveto
          -116 454 callgsubr
          46 hlineto
          68 -116 rlineto
          -12 7 7 -5 18 hhcurveto
          -131 218 455 callsubr
          87 572 callsubr
        </CharString>
        <CharString name="R">
          -21 callgsubr
          endchar
        </CharString>
        <CharString name="Racute">
          -21 callgsubr
          205 213 callgsubr
          5 516 callgsubr
        </CharString>
        <CharString name="Rcaron">
          -21 callgsubr
          145 707 rmoveto
          49 hlineto
          10 7 533 callsubr
          62 427 callgsubr
          -46 200 callsubr
        </CharString>
        <CharString name="S">
          45 61 156 -39 callgsubr
        </CharString>
        <CharString name="Sacute">
          45 303 213 callgsubr
          6 724 callgsubr
          -320 -680 -39 callgsubr
        </CharString>
        <CharString name="Scaron">
          45 293 707 rmoveto
          10 288 callsubr
          -46 hlineto
          -8 -5 -2 -8 -3 hvcurveto
          -40 -78 -40 78 rlineto
          8 -4 -4 2 -8 hhcurveto
          -46 hlineto
          -8 -3 237 callsubr
          11 hhcurveto
          -184 -551 -39 callgsubr
        </CharString>
        <CharString name="Scircumflex">
          45 320 826 129 callgsubr
          -322 -563 -39 callgsubr
        </CharString>
        <CharString name="Sigma">
          -14 219 315 rmoveto
          -144 -207 rlineto
          -8 -13 -3 -9 -19 vvcurveto
          -50 vlineto
          -11 4 -6 12 vhcurveto
          337 hlineto
          14 485 callsubr
          56 447 callsubr
          -14 vhcurveto
          -240 4 hlineto
          142 202 7 10 0 18 -7 11 rlinecurve
          -142 211 rlineto
          4 240 vlineto
          13 4 7 11 hvcurveto
          57 216 callgsubr
          -337 426 callgsubr
          -18 3 -10 8 -12 vhcurveto
          145 -216 rlineto
          endchar
        </CharString>
        <CharString name="T">
          92 callgsubr
          endchar
        </CharString>
        <CharString name="Tbar">
          2 266 hmoveto
          12 6 4 13 hvcurveto
          273 vlineto
          8 2 3 8 vhcurveto
          78 hlineto
          14 3 5 12 hvcurveto
          39 447 callsubr
          -13 vhcurveto
          -78 hlineto
          -8 -2 3 7 hvcurveto
          163 vlineto
          7 2 3 8 vhcurveto
          132 hlineto
          612 callsubr
          51 216 callgsubr
          -383 307 callgsubr
          132 276 callgsubr
          -163 vlineto
          -7 -4 -3 -7 vhcurveto
          -74 668 callsubr
          -39 vlineto
          -12 3 -5 14 vhcurveto
          74 491 callgsubr
          -8 hvcurveto
          -273 427 callsubr
        </CharString>
        <CharString name="Tcaron">
          92 callgsubr
          9 707 228 callsubr
          -3 -4 2 -8 hhcurveto
          -45 hlineto
          -9 -3 -6 -6 4 hvcurveto
          64 681 callgsubr
          5 -3 11 hhcurveto
          endchar
        </CharString>
        <CharString name="Thorn">
          0 174 338 callsubr
          105 257 callgsubr
          95 hlineto
          97 59 56 99 hvcurveto
          68 360 callsubr
          -95 547 callsubr
          106 54 callgsubr
          -609 225 callgsubr
          91 218 rmoveto
          -7 517 callgsubr
          187 551 callsubr
          7 vhcurveto
          81 hlineto
          51 21 -25 -49 hvcurveto
          -60 vlineto
          -50 -21 -23 -51 vhcurveto
          endchar
        </CharString>
        <CharString name="U">
          -60 callsubr
          endchar
        </CharString>
        <CharString name="Uacute">
          -60 callsubr
          -153 193 rmoveto
          -11 -8 -4 -12 -6 281 callsubr
          85 425 callsubr
          endchar
        </CharString>
        <CharString name="Ubreve">
          -60 callsubr
          -302 181 232 callgsubr
        </CharString>
        <CharString name="Ucircumflex">
          -60 callsubr
          -146 183 484 callsubr
          -10 hhcurveto
          -49 101 callsubr
          4 2 8 4 560 callsubr
          8 hhcurveto
          45 hlineto
          9 726 callsubr
        </CharString>
        <CharString name="Udieresis">
          -60 callsubr
          -149 81 104 callgsubr
        </CharString>
        <CharString name="Ugrave">
          -60 callsubr
          -209 177 rmoveto
          12 -7 -8 4 -11 494 callsubr
          3 680 callgsubr
        </CharString>
        <CharString name="Uhungarumlaut">
          -60 callsubr
          -80 193 rmoveto
          -11 428 callsubr
          -6 5 -10 720 callsubr
          -51 -96 rlineto
          -12 -5 3 -5 10 hhcurveto
          32 hlineto
          9 7 4 8 6 663 callgsubr
        </CharString>
        <CharString name="Umacron">
          -60 callsubr
          -94 97 251 callgsubr
        </CharString>
        <CharString name="Uogonek">
          54 409 643 rmoveto
          -12 -5 274 callsubr
          -23 -25 -50 vhcurveto
          -82 hlineto
          -49 -23 25 49 hvcurveto
          467 -36 callgsubr
          -471 vlineto
          -98 57 -57 98 vhcurveto
          47 hlineto
          -44 -67 rlineto
          -24 -17 9 -25 36 713 callsubr
          -40 hlineto
          43 62 rlineto
          13 hlineto
          97 59 57 98 hvcurveto
          472 vlineto
          12 -6 4 -12 vhcurveto
          endchar
        </CharString>
        <CharString name="Uring">
          -60 callsubr
          -202 97 rmoveto
          -22 -9 10 24 hvcurveto
          24 vlineto
          25 10 10 22 vhcurveto
          14 hlineto
          23 9 -10 -25 hvcurveto
          -24 vlineto
          -24 -9 -10 -23 vhcurveto
          14 -40 rmoveto
          38 24 22 40 hvcurveto
          51 vlineto
          38 -24 22 -38 vhcurveto
          -43 hlineto
          -38 -22 -22 -38 hvcurveto
          -51 vlineto
          -40 22 -22 38 vhcurveto
          endchar
        </CharString>
        <CharString name="Utilde">
          -60 callsubr
          -179 103 rmoveto
          26 16 3 7 11 hhcurveto
          17 5 475 callsubr
          8 vhcurveto
          29 590 callgsubr
          -14 32 -52 -26 518 callsubr
          -2 2 -8 vhcurveto
          -29 hlineto
          -7 -3 539 callgsubr
          53 24 18 7 37 20 vhcurveto
          endchar
        </CharString>
        <CharString name="V">
          10 307 hmoveto
          10 6 4 13 3 hvcurveto
          167 607 rlineto
          12 3 -6 7 -13 hhcurveto
          -70 hlineto
          26 callgsubr
          -3 hvcurveto
          -128 -522 rlineto
          -4 hlineto
          -129 522 rlineto
          13 -2 -5 4 -12 hhcurveto
          -71 hlineto
          -13 -6 -7 -12 4 hvcurveto
          166 -607 rlineto
          -13 3 7 -4 11 hhcurveto
          endchar
        </CharString>
        <CharString name="W">
          299 -44 callgsubr
          endchar
        </CharString>
        <CharString name="Wacute">
          300 -44 callgsubr
          290 836 rmoveto
          -12 -8 -4 -12 -6 718 callsubr
          49 hlineto
          8 9 4 8 5 hvcurveto
          84 100 rlineto
          10 8 680 callsubr
        </CharString>
        <CharString name="Wcircumflex">
          300 -44 callgsubr
          289 826 123 callsubr
        </CharString>
        <CharString name="Wdieresis">
          300 -44 callgsubr
          284 724 103 callsubr
        </CharString>
        <CharString name="Wgrave">
          300 -44 callgsubr
          219 820 rmoveto
          12 -5 -9 4 -11 hhcurveto
          -78 hlineto
          -11 -5 471 callgsubr
        </CharString>
        <CharString name="X">
          23 388 16 rmoveto
          -12 5 8 -4 10 hhcurveto
          75 hlineto
          12 5 8 11 -6 hvcurveto
          -165 314 160 291 rlineto
          9 4 -5 10 -11 hhcurveto
          -74 hlineto
          -11 -8 -4 -13 -7 hvcurveto
          -115 -232 rlineto
          -4 hlineto
          -115 232 rlineto
          13 -6 -10 4 -12 hhcurveto
          -71 hlineto
          -11 -5 -9 -9 5 hvcurveto
          158 -292 -165 -315 rlineto
          -10 -5 5 -8 11 hhcurveto
          74 hlineto
          11 8 4 12 5 hvcurveto
          123 244 rlineto
          4 hlineto
          endchar
        </CharString>
        <CharString name="Y">
          -5 callgsubr
          endchar
        </CharString>
        <CharString name="Yacute">
          -5 callgsubr
          71 836 rmoveto
          -11 -8 -4 -12 668 callgsubr
          -7 4 418 callgsubr
          -5 7 -10 hhcurveto
          endchar
        </CharString>
        <CharString name="Ycircumflex">
          -5 callgsubr
          74 826 rmoveto
          7 -5 -5 3 -11 hhcurveto
          -48 151 callgsubr
          4 609 callsubr
          726 callsubr
        </CharString>
        <CharString name="Ydieresis">
          -5 callgsubr
          76 724 104 callgsubr
        </CharString>
        <CharString name="Ygrave">
          -5 callgsubr
          17 820 rmoveto
          12 -6 -9 4 -11 hhcurveto
          -77 hlineto
          -12 -4 -7 -10 7 hvcurveto
          85 -100 rlineto
          -8 5 9 -4 8 hhcurveto
          49 hlineto
          10 727 callgsubr
        </CharString>
        <CharString name="Z">
          15 callgsubr
          endchar
        </CharString>
        <CharString name="Zacute">
          15 callgsubr
          265 772 rmoveto
          -11 -8 -4 -12 -6 281 callsubr
          85 425 callsubr
          endchar
        </CharString>
        <CharString name="Zcaron">
          15 callgsubr
          201 643 358 callsubr
          -1 396 callsubr
          -2 -6 2 -7 hhcurveto
          -45 hlineto
          -10 -1 309 callsubr
          9 hhcurveto
          endchar
        </CharString>
        <CharString name="Zdotaccent">
          15 callgsubr
          181 663 431 callgsubr
          endchar
        </CharString>
        <CharString name="a">
          9 -48 callgsubr
          endchar
        </CharString>
        <CharString name="aacute">
          9 -48 callgsubr
          101 703 136 callsubr
        </CharString>
        <CharString name="abreve">
          9 164 680 rmoveto
          -71 36 -35 61 vhcurveto
          26 hlineto
          61 35 244 callsubr
          -7 -5 472 callgsubr
          595 callgsubr
          -5 3 -7 vhcurveto
          -38 hlineto
          -8 -5 -3 -9 hvcurveto
          83 -691 -29 callgsubr
          144 638 callsubr
          -48 hlineto
          107 callgsubr
          119 491 callgsubr
          -7 hvcurveto
          endchar
        </CharString>
        <CharString name="acircumflex">
          9 -48 callgsubr
          104 693 32 callgsubr
          endchar
        </CharString>
        <CharString name="acute">
          -216 139 703 rmoveto
          -11 -9 -4 -12 -6 hvcurveto
          -51 309 callgsubr
          7 4 8 6 516 callgsubr
        </CharString>
        <CharString name="acute.uc">
          -161 168 836 rmoveto
          -11 -8 -4 -12 -6 hvcurveto
          -52 641 callgsubr
          47 hlineto
          9 425 callgsubr
        </CharString>
        <CharString name="adieresis">
          9 -48 callgsubr
          108 591 103 callgsubr
        </CharString>
        <CharString name="ae">
          40 callsubr
          endchar
        </CharString>
        <CharString name="aeacute">
          40 callsubr
          -5 544 rmoveto
          -10 -9 -4 -12 -5 hvcurveto
          -52 729 callsubr
          3 330 callsubr
        </CharString>
        <CharString name="agrave">
          9 -48 callgsubr
          58 687 rmoveto
          12 -6 -8 4 -12 494 callsubr
          4 680 callgsubr
        </CharString>
        <CharString name="amacron">
          9 -48 callgsubr
          172 392 callsubr
        </CharString>
        <CharString name="ampersand">
          107 446 12 rmoveto
          -9 7 11 -3 11 hhcurveto
          80 hlineto
          9 1 8 6 -5 hvcurveto
          -179 212 rlineto
          157 hlineto
          612 callsubr
          51 vlineto
          11 -5 7 -12 vhcurveto
          -229 hlineto
          -53 61 rlineto
          -26 29 -18 30 35 vvcurveto
          21 vlineto
          50 23 22 47 vhcurveto
          12 hlineto
          44 23 -22 -50 hvcurveto
          -37 vlineto
          -12 5 -6 12 vhcurveto
          63 hlineto
          12 5 6 12 hvcurveto
          39 vlineto
          98 -58 55 -97 vhcurveto
          -30 hlineto
          -97 -64 -55 -98 hvcurveto
          -21 vlineto
          -47 14 -35 27 -35 vhcurveto
          -71 -6 -31 -64 -60 vvcurveto
          -69 vlineto
          -98 58 -55 97 vhcurveto
          69 hlineto
          67 39 22 48 16 hvcurveto
          -177 16 rmoveto
          -51 -24 23 50 hvcurveto
          57 vlineto
          52 18 24 40 2 vhcurveto
          135 -157 rlineto
          -35 -5 -21 -16 -37 hhcurveto
          endchar
        </CharString>
        <CharString name="aogonek">
          9 222 85 rmoveto
          107 callgsubr
          119 491 callgsubr
          -7 hvcurveto
          -245 361 callgsubr
          -62 425 rmoveto
          -98 -57 -56 -99 hvcurveto
          -200 vlineto
          -98 57 -57 98 vhcurveto
          39 hlineto
          153 callsubr
          -35 hlineto
          -46 -75 rlineto
          -22 -15 0 -37 33 hhcurveto
          31 51 14 24 2 hvcurveto
          3 11 -6 5 -16 -1 rrcurveto
          -1 -4 -29 -2 -9 hhcurveto
          -3 29 45 21 13 hvcurveto
          46 5 callgsubr
          endchar
        </CharString>
        <CharString name="approxequal">
          46 174 388 636 callgsubr
          7 430 callgsubr
          -7 -7 -7 -16 vvcurveto
          -44 vlineto
          -8 5 -4 696 callgsubr
          -177 vmoveto
          60 72 -31 67 hhcurveto
          32 29 7 8 21 hvcurveto
          17 7 7 8 15 vvcurveto
          44 vlineto
          8 -5 4 -7 vhcurveto
          -15 -30 -27 -47 -70 -64 32 -65 hhcurveto
          -32 -29 -7 -8 -21 hvcurveto
          -17 -8 -7 -7 -16 vvcurveto
          -44 vlineto
          -7 5 -5 696 callgsubr
          endchar
        </CharString>
        <CharString name="aring">
          9 184 641 callsubr
          45 hlineto
          36 22 17 38 hvcurveto
          60 vlineto
          36 -22 16 -36 vhcurveto
          -45 hlineto
          -37 -20 -16 -36 hvcurveto
          38 -15 rmoveto
          27 9 6 25 vhcurveto
          16 hlineto
          24 633 callsubr
          -25 -9 7 26 hvcurveto
          25 -624 -29 callgsubr
          144 638 callsubr
          -48 hlineto
          107 callgsubr
          119 491 callgsubr
          -7 hvcurveto
          endchar
        </CharString>
        <CharString name="asciicircum">
          -9 350 380 rmoveto
          -12 6 5 -5 12 hhcurveto
          57 hlineto
          12 7 6 12 -7 hvcurveto
          -124 237 rlineto
          19 -10 -7 6 -20 hhcurveto
          -69 hlineto
          -20 -7 -6 -19 -10 hvcurveto
          -124 -237 rlineto
          -12 -7 7 -6 12 hhcurveto
          57 hlineto
          12 5 5 12 6 hvcurveto
          103 201 rlineto
          endchar
        </CharString>
        <CharString name="asciitilde">
          46 174 300 636 callgsubr
          8 430 callgsubr
          -8 -7 -7 -16 vvcurveto
          -43 vlineto
          -8 5 -5 696 callgsubr
          endchar
        </CharString>
        <CharString name="asterisk">
          -102 235 627 rmoveto
          12 -5 4 -11 vhcurveto
          -39 491 callsubr
          -12 hvcurveto
          -11 vlineto
          -63 36 -55 2 -6 vhcurveto
          3 6 31 55 63 vvcurveto
          -141 -213 rmoveto
          -8 -10 3 -8 9 -5 31 -23 rcurveline
          9 -6 8 0 6 8 7 10 rcurveline
          37 51 3 66 2 6 -6 -3 -58 -26 -37 -51 rrcurveto
          -16 153 rmoveto
          -12 5 -6 -5 -3 -9 -12 -38 rcurveline
          -4 -10 3 -7 10 -4 12 -4 rcurveline
          -19 59 64 18 6 hhcurveto
          -4 4 -43 47 -61 20 rrcurveto
          247 -62 rmoveto
          12 3 2 8 -3 10 -12 37 rcurveline
          -4 11 -5 3 -11 -3 -12 -4 rcurveline
          -61 -18 -40 -52 -5 -4 7 -1 62 -13 59 19 rrcurveto
          -76 -134 rmoveto
          7 -10 7 1 9 5 32 23 rcurveline
          9 6 1 8 -7 8 -6 10 rcurveline
          -37 51 -62 23 -5 4 1 -6 5 -65 39 -50 rrcurveto
          endchar
        </CharString>
        <CharString name="at">
          246 452 242 rmoveto
          -51 -24 -33 -58 vhcurveto
          -2 hlineto
          -50 -22 24 49 hvcurveto
          80 vlineto
          50 22 24 50 vhcurveto
          73 hlineto
          8 3 -3 -8 hvcurveto
          48 -432 rmoveto
          390 callgsubr
          25 216 callgsubr
          -181 hlineto
          -110 -83 71 121 hvcurveto
          159 vlineto
          121 77 71 110 vhcurveto
          190 hlineto
          71 54 -39 -75 hvcurveto
          -207 vlineto
          -54 -27 -26 -51 vhcurveto
          -1 hlineto
          -8 -9 3 8 hvcurveto
          289 286 callgsubr
          -162 hlineto
          -85 707 callgsubr
          -72 vlineto
          -98 58 -51 78 38 45 12 42 19 vhcurveto
          4 -11 hlineto
          -30 27 -14 28 vhcurveto
          47 hlineto
          78 56 54 79 hvcurveto
          219 vlineto
          98 -73 70 -106 vhcurveto
          -201 hlineto
          -134 -107 -102 -144 hvcurveto
          -173 vlineto
          -150 114 -92 139 vhcurveto
          endchar
        </CharString>
        <CharString name="atilde">
          10 -48 callgsubr
          -50 652 rmoveto
          -45 14 -32 53 24 18 6 37 20 vhcurveto
          27 15 656 callgsubr
          3 -2 7 vhcurveto
          30 hlineto
          7 2 611 callgsubr
          -14 32 -53 -25 -15 -8 -30 -19 vhcurveto
          -32 -18 -5 -7 -10 hhcurveto
          -16 -6 9 34 hvcurveto
          19 vlineto
          9 -2 2 -7 vhcurveto
          -29 hlineto
          -8 -2 -2 -9 hvcurveto
          endchar
        </CharString>
        <CharString name="b">
          15 63 596 callgsubr
          229 hlineto
          98 573 callsubr
          205 vlineto
          98 -58 56 -98 vhcurveto
          -44 hlineto
          -45 -40 -19 -35 -16 hvcurveto
          -4 226 72 callsubr
          108 -601 rmoveto
          505 callsubr
          249 vlineto
          50 684 callgsubr
          53 hlineto
          50 22 -24 -50 hvcurveto
          -196 287 callgsubr
          endchar
        </CharString>
        <CharString name="backslash">
          -99 268 18 rmoveto
          -14 5 6 -4 12 hhcurveto
          57 hlineto
          12 7 5 13 -5 hvcurveto
          -45 116 -135 376 -45 115 rrcurveto
          12 -5 -5 6 -13 hhcurveto
          -59 hlineto
          -12 -5 -6 -13 5 hvcurveto
          endchar
        </CharString>
        <CharString name="bar">
          -281 146 626 rmoveto
          13 -7 4 -11 vhcurveto
          -34 124 callgsubr
          34 hlineto
          11 7 4 13 hvcurveto
          endchar
        </CharString>
        <CharString name="braceleft">
          -195 231 643 rmoveto
          -93 -43 -56 -99 hvcurveto
          -113 vlineto
          -46 -18 -16 -31 -14 -4 -6 -11 vhcurveto
          -51 vlineto
          -12 4 -6 14 31 18 -15 -46 vhcurveto
          -113 vlineto
          -99 43 -56 93 vhcurveto
          6 545 callgsubr
          37 216 callgsubr
          -3 hlineto
          -46 -14 24 50 hvcurveto
          130 vlineto
          52 -18 33 -41 12 vhcurveto
          43 14 16 32 52 vvcurveto
          130 vlineto
          50 14 24 46 vhcurveto
          3 545 callgsubr
          37 216 callgsubr
          endchar
        </CharString>
        <CharString name="braceright">
          -195 188 488 rmoveto
          99 -44 56 -92 vhcurveto
          -6 626 callsubr
          3 hlineto
          46 13 -24 -50 hvcurveto
          -130 vlineto
          -52 17 -32 42 -14 vhcurveto
          -41 -12 -18 -33 -52 vvcurveto
          -130 vlineto
          -50 -13 -24 -46 vhcurveto
          -3 626 callsubr
          6 hlineto
          92 44 56 99 hvcurveto
          113 vlineto
          46 17 15 32 13 4 6 12 vhcurveto
          51 314 callgsubr
          -32 -17 16 46 vhcurveto
          endchar
        </CharString>
        <CharString name="bracketleft">
          -194 228 -99 rmoveto
          659 callgsubr
          -65 hlineto
          506 callgsubr
          585 vlineto
          8 4 3 7 vhcurveto
          65 hlineto
          659 callgsubr
          -140 hlineto
          -12 -4 -5 -12 hvcurveto
          -707 vlineto
          -13 4 -5 12 vhcurveto
          endchar
        </CharString>
        <CharString name="bracketright">
          -194 60 -82 rmoveto
          229 callgsubr
          140 hlineto
          12 4 5 13 hvcurveto
          707 vlineto
          12 -4 5 -12 vhcurveto
          -140 hlineto
          -13 589 callsubr
          13 vhcurveto
          65 491 callgsubr
          -8 hvcurveto
          -585 vlineto
          -7 -4 -3 -7 vhcurveto
          -65 198 callgsubr
          endchar
        </CharString>
        <CharString name="breve">
          -167 58 680 rmoveto
          -71 35 -35 62 203 callgsubr
          -13 -16 -32 vhcurveto
          -7 hlineto
          -31 -13 15 310 callgsubr
          -7 -5 -3 -9 hvcurveto
          endchar
        </CharString>
        <CharString name="breve.uc">
          -133 76 824 674 callsubr
          61 vhcurveto
          26 hlineto
          61 36 339 callsubr
          -5 4 -8 vhcurveto
          -36 hlineto
          -9 -3 600 callgsubr
          -14 -16 -32 vhcurveto
          -6 hlineto
          -32 -13 554 callsubr
          endchar
        </CharString>
        <CharString name="brokenbar">
          -284 145 253 rmoveto
          13 -6 5 -12 vhcurveto
          -35 hlineto
          -12 -6 -5 -13 hvcurveto
          -236 469 callgsubr
          35 503 callgsubr
          609 vmoveto
          13 -6 4 -12 vhcurveto
          -35 hlineto
          -12 -6 -4 -13 hvcurveto
          -236 469 callgsubr
          35 503 callgsubr
          endchar
        </CharString>
        <CharString name="bullet">
          -217 215 362 rmoveto
          33 -20 19 -33 vhcurveto
          -39 hlineto
          -33 -19 -19 -33 hvcurveto
          -84 vlineto
          -34 19 -18 33 vhcurveto
          39 hlineto
          33 20 18 34 hvcurveto
          endchar
        </CharString>
        <CharString name="c">
          37 callgsubr
          endchar
        </CharString>
        <CharString name="cacute">
          37 callgsubr
          -106 687 rmoveto
          -10 -9 -4 -12 668 callgsubr
          -7 4 330 callsubr
        </CharString>
        <CharString name="caron">
          -165 145 574 rmoveto
          47 hlineto
          11 251 callsubr
          -5 2 -8 hhcurveto
          -45 hlineto
          -8 -3 237 callsubr
          11 hhcurveto
          endchar
        </CharString>
        <CharString name="caron.uc">
          -165 145 707 rmoveto
          47 hlineto
          11 251 callsubr
          -5 2 -8 hhcurveto
          -45 hlineto
          -8 -3 237 callsubr
          11 hhcurveto
          endchar
        </CharString>
        <CharString name="ccaron">
          37 callgsubr
          -159 558 358 callsubr
          -1 6 -10 hhcurveto
          -45 200 callsubr
        </CharString>
        <CharString name="ccedilla">
          -98 355 425 rmoveto
          13 5 4 12 hvcurveto
          52 411 callgsubr
          -147 -38 callsubr
          21 hlineto
          -35 -41 rlineto
          -19 -17 10 -30 24 hhcurveto
          21 hlineto
          38 10 661 callsubr
          -12 -4 -3 -12 hvcurveto
          -17 vlineto
          -12 3 519 callsubr
          37 38 rlineto
          63 664 callsubr
          52 vlineto
          704 callsubr
          -133 hlineto
          -49 -23 25 49 hvcurveto
          192 vlineto
          49 23 25 49 vhcurveto
          endchar
        </CharString>
        <CharString name="cdotaccent">
          37 callgsubr
          -185 574 rmoveto
          -11 5 -5 11 vhcurveto
          66 hlineto
          10 5 5 11 hvcurveto
          97 vlineto
          12 -5 662 callgsubr
        </CharString>
        <CharString name="cedilla">
          -241 67 -41 rmoveto
          636 callsubr
          37 11 661 callsubr
          -13 -2 -3 -12 hvcurveto
          -17 vlineto
          -12 2 519 callsubr
          57 58 rlineto
          -65 hlineto
          endchar
        </CharString>
        <CharString name="cedilla.uc">
          -164 105 -41 rmoveto
          372 callsubr
          38 hlineto
          54 35 19 47 hvcurveto
          15 vlineto
          51 -28 19 -47 vhcurveto
          4 vlineto
          56 58 rlineto
          -65 hlineto
          endchar
        </CharString>
        <CharString name="cent">
          -79 281 -93 rmoveto
          10 6 5 11 hvcurveto
          77 71 vlineto
          646 callgsubr
          52 vlineto
          11 712 callsubr
          -146 hlineto
          -49 -23 25 49 hvcurveto
          192 vlineto
          49 23 25 49 644 callgsubr
          5 5 11 hvcurveto
          52 vlineto
          11 -17 6 -12 vhcurveto
          -60 83 hlineto
          563 callsubr
          -48 hlineto
          -11 -6 -5 -12 hvcurveto
          -82 -17 vlineto
          -92 -54 -59 -96 hvcurveto
          -200 vlineto
          -96 54 -59 92 vhcurveto
          17 -76 hlineto
          -12 6 -5 11 vhcurveto
          endchar
        </CharString>
        <CharString name="circumflex">
          -165 214 693 259 callsubr
        </CharString>
        <CharString name="circumflex.uc">
          -165 214 826 259 callsubr
        </CharString>
        <CharString name="colon">
          -304 150 139 421 callsubr
          477 vmoveto
          430 callsubr
          endchar
        </CharString>
        <CharString name="comma">
          366 callgsubr
          -228 vlineto
          -12 7 542 callsubr
          53 97 rlineto
          12 23 7 16 21 vvcurveto
          endchar
        </CharString>
        <CharString name="commaaccent">
          -503 290 -48 rmoveto
          12 -6 4 -11 637 callgsubr
          -173 vlineto
          -12 7 -4 6 7 572 callgsubr
        </CharString>
        <CharString name="copyright">
          208 195 643 rmoveto
          -79 -49 -48 -80 hvcurveto
          -387 vlineto
          -80 49 -48 79 vhcurveto
          321 hlineto
          79 50 48 80 hvcurveto
          387 vlineto
          80 -50 48 -79 vhcurveto
          -303 -583 rmoveto
          -55 -26 24 55 hvcurveto
          365 vlineto
          55 26 24 55 vhcurveto
          285 hlineto
          54 27 -24 -55 hvcurveto
          -365 vlineto
          -55 -27 -24 -54 vhcurveto
          -6 343 rmoveto
          74 -41 35 -73 vhcurveto
          -43 hlineto
          -72 -42 -35 -74 hvcurveto
          -164 vlineto
          -73 42 -36 72 vhcurveto
          43 hlineto
          73 41 36 73 hvcurveto
          27 vlineto
          10 -4 3 -8 vhcurveto
          -41 hlineto
          -8 -4 -3 -10 hvcurveto
          -16 vlineto
          -54 -13 -9 -53 vhcurveto
          -10 hlineto
          -52 -12 9 54 hvcurveto
          143 vlineto
          52 12 9 52 vhcurveto
          10 hlineto
          53 13 -9 -52 hvcurveto
          -15 vlineto
          -9 4 -3 8 vhcurveto
          41 hlineto
          8 4 3 9 hvcurveto
          endchar
        </CharString>
        <CharString name="d">
          15 135 callgsubr
          endchar
        </CharString>
        <CharString name="dagger">
          -88 216 hmoveto
          315 callsubr
          2 hvcurveto
          6 43 14 192 71 vvcurveto
          29 -5 40 227 callsubr
          119 13 rlineto
          -8 -25 -4 -41 -27 vvcurveto
          -71 14 -192 6 -43 vhcurveto
          -13 1 6 -4 12 hhcurveto
          endchar
        </CharString>
        <CharString name="daggerdbl">
          -88 170 416 rmoveto
          -8 -26 -4 -43 -27 vvcurveto
          -28 4 -42 8 -24 vhcurveto
          -120 12 rlineto
          -13 2 -4 -8 -11 vvcurveto
          -54 vlineto
          -11 4 -6 13 2 vhcurveto
          121 13 -14 -148 rlineto
          -13 -2 8 -4 11 hhcurveto
          224 callsubr
          -15 149 125 -14 rlineto
          13 -2 5 6 11 vvcurveto
          54 vlineto
          11 -5 8 -13 -2 vhcurveto
          -123 -13 rlineto
          8 24 5 42 29 vvcurveto
          29 -5 43 227 callsubr
          endchar
        </CharString>
        <CharString name="dcaron">
          93 135 callgsubr
          397 687 264 callgsubr
          -206 vlineto
          -12 7 -4 7 5 6 4 5 4 vhcurveto
          42 98 rlineto
          10 24 8 18 29 vvcurveto
          endchar
        </CharString>
        <CharString name="dcroat">
          51 357 638 callsubr
          -53 hlineto
          254 callgsubr
          134 vlineto
          49 22 24 50 vhcurveto
          53 hlineto
          58 24 -33 -51 hvcurveto
          -104 -282 rmoveto
          45 40 18 35 15 hvcurveto
          4 -36 hlineto
          88 callgsubr
          515 246 callsubr
          58 hlineto
          612 callsubr
          40 320 callsubr
          -58 hlineto
          505 callsubr
          59 54 callgsubr
          -59 vlineto
          -8 -3 -3 -8 vhcurveto
          -142 hlineto
          -12 346 callsubr
          -40 vlineto
          -12 3 -5 13 vhcurveto
          142 442 callsubr
          -134 -4 vlineto
          35 -15 -40 19 -45 hhcurveto
          -45 hlineto
          -98 -57 -57 -98 hvcurveto
          -142 vlineto
          -98 57 -57 98 vhcurveto
          endchar
        </CharString>
        <CharString name="degree">
          -155 180 551 rmoveto
          -13 hlineto
          -21 -5 5 20 hvcurveto
          61 vlineto
          21 5 5 21 vhcurveto
          13 hlineto
          21 5 -5 -21 hvcurveto
          -61 vlineto
          -20 -5 -5 -21 vhcurveto
          21 -41 rmoveto
          30 20 18 31 hvcurveto
          97 vlineto
          30 -20 17 -30 vhcurveto
          -55 hlineto
          -31 -18 -17 -30 hvcurveto
          -97 vlineto
          -31 18 -18 31 vhcurveto
          endchar
        </CharString>
        <CharString name="dieresis">
          -114 238 591 208 callsubr
          10 6 235 callgsubr
          -180 -95 429 callgsubr
          endchar
        </CharString>
        <CharString name="dieresis.uc">
          -134 228 724 429 callgsubr
          -180 -95 rmoveto
          -11 5 -6 12 vhcurveto
          59 hlineto
          11 6 497 callsubr
          -12 -5 -5 -12 hvcurveto
          endchar
        </CharString>
        <CharString name="divide">
          -22 207 433 rmoveto
          188 callgsubr
          34 503 callgsubr
          53 vlineto
          13 -6 5 -12 vhcurveto
          -34 hlineto
          -11 -6 -5 -13 hvcurveto
          186 -199 rmoveto
          12 485 callsubr
          34 490 callgsubr
          -12 vhcurveto
          -303 hlineto
          -14 589 callsubr
          14 vhcurveto
          117 -132 rmoveto
          188 callgsubr
          34 503 callgsubr
          54 vlineto
          12 -6 4 -12 vhcurveto
          -34 491 callsubr
          -12 hvcurveto
          endchar
        </CharString>
        <CharString name="dollar">
          15 288 -98 rmoveto
          187 callsubr
          81 5 vlineto
          94 60 58 98 hvcurveto
          48 vlineto
          126 -77 30 -79 5 vhcurveto
          -51 2 rlineto
          -63 4 -41 12 55 vvcurveto
          34 vlineto
          63 22 23 58 vhcurveto
          46 hlineto
          58 22 -23 -56 hvcurveto
          -13 vlineto
          -13 6 700 callgsubr
          12 5 5 13 hvcurveto
          22 vlineto
          96 -56 60 -91 vhcurveto
          -5 82 hlineto
          371 callgsubr
          -46 362 callsubr
          -82 -17 vlineto
          -96 -57 -58 -98 hvcurveto
          -47 vlineto
          -132 79 -25 83 -6 vhcurveto
          45 -2 rlineto
          61 -3 43 -13 -60 vvcurveto
          -32 vlineto
          -59 -24 -24 -56 vhcurveto
          -52 hlineto
          -58 -23 23 56 hvcurveto
          15 vlineto
          13 596 callsubr
          -6 -5 -13 hvcurveto
          -23 vlineto
          -97 58 -59 95 vhcurveto
          17 -81 hlineto
          188 callgsubr
          endchar
        </CharString>
        <CharString name="dotaccent">
          -288 58 590 rmoveto
          -11 5 -5 12 vhcurveto
          65 634 callgsubr
          -65 hlineto
          -12 -5 -4 -12 hvcurveto
          endchar
        </CharString>
        <CharString name="dotaccent.uc">
          -199 99 727 rmoveto
          -12 6 -5 645 callgsubr
          707 callsubr
          96 vlineto
          12 -5 4 -11 vhcurveto
          -65 hlineto
          -11 -6 -5 -12 hvcurveto
          endchar
        </CharString>
        <CharString name="dotlessi">
          -264 70 17 rmoveto
          188 callgsubr
          65 hlineto
          12 4 3 14 hvcurveto
          476 vlineto
          173 callgsubr
          -17 callsubr
          endchar
        </CharString>
</ttFont>
